<?xml version="1.0" encoding="UTF-8" standalone="no"?>
<svg
   xmlns:dc="http://purl.org/dc/elements/1.1/"
   xmlns:cc="http://creativecommons.org/ns#"
   xmlns:rdf="http://www.w3.org/1999/02/22-rdf-syntax-ns#"
   xmlns:svg="http://www.w3.org/2000/svg"
   xmlns="http://www.w3.org/2000/svg"
   viewBox="0 0 451.55588 451.55573"
   height="451.55573"
   width="451.55588"
   xml:space="preserve"
   id="svg2"
   version="1.1"><metadata
     id="metadata8"><rdf:RDF><cc:Work
         rdf:about=""><dc:format>image/svg+xml</dc:format><dc:type
           rdf:resource="http://purl.org/dc/dcmitype/StillImage" /></cc:Work></rdf:RDF></metadata><defs
     id="defs6"><clipPath
       id="clipPath14"
       clipPathUnits="userSpaceOnUse"><path
         id="path12"
         d="M 0,0 H 595.28 V 841.89 H 0 Z" /></clipPath><clipPath
       id="clipPath24"
       clipPathUnits="userSpaceOnUse"><path
         id="path22"
         d="M 0,0 H 595.28 V 841.89 H 0 Z" /></clipPath><clipPath
       id="clipPath60"
       clipPathUnits="userSpaceOnUse"><path
         id="path58"
         d="m 318,685.89 h 1 v -1 h -1 z" /></clipPath><clipPath
       id="clipPath66"
       clipPathUnits="userSpaceOnUse"><path
         id="path64"
         d="m 318.633,685.48 h -0.008 c 0.008,0 0.008,0 0.008,-0.004 0,-0.004 -0.008,-0.004 -0.008,-0.008 h 0.008 c 0,-0.004 0,-0.004 0,-0.004 0,0 0.004,0 0.008,0 v -0.004 0.004 c 0.004,0 0.007,-0.004 0.011,-0.008 -0.004,0.004 -0.004,0.008 -0.004,0.012 h 0.004 c 0,0 0,0 0,0.004 0,0.004 0.008,0.004 0.008,0.008 -0.008,0 -0.008,0 -0.012,0 0,0.004 0.004,0.004 0.004,0.004 h -0.007 c -0.004,0 0,0.004 -0.004,0.004 v -0.004 c 0,0.004 -0.008,0.004 -0.008,0.011 0,-0.007 0,-0.011 0,-0.015" /></clipPath><clipPath
       id="clipPath72"
       clipPathUnits="userSpaceOnUse"><path
         id="path70"
         d="M 0,0 H 595.28 V 841.89 H 0 Z" /></clipPath><clipPath
       id="clipPath78"
       clipPathUnits="userSpaceOnUse"><path
         id="path76"
         d="m 318,685 h 1 v 1 h -1 z" /></clipPath><clipPath
       id="clipPath82"
       clipPathUnits="userSpaceOnUse"><path
         id="path80"
         d="m 318.617,685.609 h 0.051 v -0.051 h -0.051 z" /></clipPath><clipPath
       id="clipPath86"
       clipPathUnits="userSpaceOnUse"><path
         id="path84"
         d="m 318,686 h 1 v -1 h -1 z" /></clipPath><clipPath
       id="clipPath90"
       clipPathUnits="userSpaceOnUse"><path
         id="path88"
         d="m 318.66,685.609 0.008,-0.043 -0.043,-0.007 -0.008,0.046 z" /></clipPath><clipPath
       id="clipPath94"
       clipPathUnits="userSpaceOnUse"><path
         id="path92"
         d="m 318.66,685.609 0.008,-0.043 -0.043,-0.007 -0.008,0.046 z" /></clipPath><clipPath
       id="clipPath98"
       clipPathUnits="userSpaceOnUse"><path
         id="path96"
         d="m 318,685 h 1 v 1 h -1 z" /></clipPath><radialGradient
       id="radialGradient104"
       spreadMethod="pad"
       gradientTransform="matrix(6.572128,-44.06505,44.06505,6.572128,320.5625,680.1872)"
       gradientUnits="userSpaceOnUse"
       r="1"
       cy="0"
       cx="0"
       fy="0"
       fx="0"><stop
         id="stop100"
         offset="0"
         style="stop-opacity:0.94119173;stop-color:#ffffff" /><stop
         id="stop102"
         offset="1"
         style="stop-opacity:0.94119173;stop-color:#ffffff" /></radialGradient><mask
       id="mask106"
       height="1"
       width="1"
       y="0"
       x="0"
       maskUnits="userSpaceOnUse"><g
         id="g128"
         transform="translate(0,-0.21997)"><g
           id="g126"
           clip-path="url(#clipPath78)"><g
             id="g108" /><g
             id="g124"><g
               id="g122"
               clip-path="url(#clipPath82)"><g
                 id="g120"
                 clip-path="url(#clipPath86)"><g
                   id="g118"
                   clip-path="url(#clipPath90)"><g
                     id="g116"
                     clip-path="url(#clipPath94)"><g
                       id="g114"
                       clip-path="url(#clipPath98)"><g
                         id="g112"><path
                           id="path110"
                           style="fill:url(#radialGradient104);stroke:none"
                           d="m 318,685 h 1 v 1 h -1 z" /></g></g></g></g></g></g></g></g></g></mask><clipPath
       id="clipPath136"
       clipPathUnits="userSpaceOnUse"><path
         id="path134"
         d="m 318,685 h 1 v 1 h -1 z" /></clipPath><clipPath
       id="clipPath140"
       clipPathUnits="userSpaceOnUse"><path
         id="path138"
         d="m 318.617,685.499 h 0.051 v -0.051 h -0.051 z" /></clipPath><clipPath
       id="clipPath144"
       clipPathUnits="userSpaceOnUse"><path
         id="path142"
         d="m 318,685.89 h 1 v -1 h -1 z" /></clipPath><clipPath
       id="clipPath148"
       clipPathUnits="userSpaceOnUse"><path
         id="path146"
         d="m 318.66,685.499 0.008,-0.043 -0.043,-0.007 -0.008,0.046 z" /></clipPath><clipPath
       id="clipPath152"
       clipPathUnits="userSpaceOnUse"><path
         id="path150"
         d="m 318.66,685.499 0.008,-0.043 -0.043,-0.007 -0.008,0.046 z" /></clipPath><radialGradient
       id="radialGradient162"
       spreadMethod="pad"
       gradientTransform="matrix(6.572128,-44.06505,44.06505,6.572128,320.5625,680.0772)"
       gradientUnits="userSpaceOnUse"
       r="1"
       cy="0"
       cx="0"
       fy="0"
       fx="0"><stop
         id="stop158"
         offset="0"
         style="stop-opacity:1;stop-color:#f0cd2c" /><stop
         id="stop160"
         offset="1"
         style="stop-opacity:1;stop-color:#f0cd2c" /></radialGradient><clipPath
       id="clipPath192"
       clipPathUnits="userSpaceOnUse"><path
         id="path190"
         d="m 277,649.89 h 41 v 33 h -41 z" /></clipPath><clipPath
       id="clipPath202"
       clipPathUnits="userSpaceOnUse"><path
         id="path200"
         d="m 277,682.89 h 41 v -33 h -41 z" /></clipPath><clipPath
       id="clipPath208"
       clipPathUnits="userSpaceOnUse"><path
         id="path206"
         d="m 277.727,663.777 c 0.035,-0.008 4.742,-1.063 13.871,0.176 -4.368,-4.633 -5.274,-14.04 -5.274,-14.04 7.969,-0.175 28.11,9.938 30.992,30.571 l -5.488,-3.133 c 0.035,-0.098 0.078,-0.195 0.106,-0.297 0.273,-1.203 -0.473,-2.406 -1.68,-2.687 -1.203,-0.282 -2.406,0.472 -2.688,1.679 -0.281,1.199 0.473,2.407 1.676,2.684 0.871,0.199 1.731,-0.137 2.254,-0.789 l 5.332,3.047 c -3.926,1.187 -7.609,1.703 -11.023,1.703 -16.399,0.004 -26.633,-11.938 -28.078,-18.914" /></clipPath><clipPath
       id="clipPath214"
       clipPathUnits="userSpaceOnUse"><path
         id="path212"
         d="M 0,0 H 595.28 V 841.89 H 0 Z" /></clipPath><clipPath
       id="clipPath220"
       clipPathUnits="userSpaceOnUse"><path
         id="path218"
         d="m 272,644 h 51 v 45 h -51 z" /></clipPath><clipPath
       id="clipPath224"
       clipPathUnits="userSpaceOnUse"><path
         id="path222"
         d="m 272.922,688.578 h 49.203 v -44.504 h -49.203 z" /></clipPath><clipPath
       id="clipPath228"
       clipPathUnits="userSpaceOnUse"><path
         id="path226"
         d="m 272,644 h 51 v 45 h -51 z" /></clipPath><mask
       id="mask230"
       height="1"
       width="1"
       y="0"
       x="0"
       maskUnits="userSpaceOnUse"><g
         id="g244"
         transform="translate(0,-0.21997)"><g
           id="g242"
           clip-path="url(#clipPath220)"><g
             id="g232" /><g
             id="g240"><g
               id="g238"
               clip-path="url(#clipPath224)"><g
                 id="g236"
                 clip-path="url(#clipPath228)"><path
                   id="path234"
                   style="fill:#f386a8;fill-opacity:1;fill-rule:nonzero;stroke:none"
                   d="m 316.457,688.582 5.668,-38.016 -43.535,-6.492 -5.668,38.016 z" /></g></g></g></g></g></mask><clipPath
       id="clipPath252"
       clipPathUnits="userSpaceOnUse"><path
         id="path250"
         d="m 277,649 h 41 v 34 h -41 z" /></clipPath><clipPath
       id="clipPath256"
       clipPathUnits="userSpaceOnUse"><path
         id="path254"
         d="m 272.922,688.468 h 49.203 v -44.504 h -49.203 z" /></clipPath><clipPath
       id="clipPath260"
       clipPathUnits="userSpaceOnUse"><path
         id="path258"
         d="m 277,649 h 41 v 34 h -41 z" /></clipPath><clipPath
       id="clipPath282"
       clipPathUnits="userSpaceOnUse"><path
         id="path280"
         d="m 324,661.89 h 45 v 27 h -45 z" /></clipPath><clipPath
       id="clipPath292"
       clipPathUnits="userSpaceOnUse"><path
         id="path290"
         d="m 324,688.89 h 45 v -27 h -45 z" /></clipPath><clipPath
       id="clipPath298"
       clipPathUnits="userSpaceOnUse"><path
         id="path296"
         d="m 324.836,680.847 6.637,-1.324 c 0.027,0.066 0.027,0.14 0.066,0.211 0.508,0.957 1.695,1.316 2.652,0.808 0.954,-0.507 1.317,-1.695 0.809,-2.652 -0.512,-0.957 -1.699,-1.32 -2.652,-0.809 -0.676,0.36 -1.036,1.063 -1.02,1.774 l -6.699,1.344 c 14.203,-19.821 32.883,-20.008 40.043,-15.184 -0.02,0.027 -2.649,4.066 -10.043,9.563 6.355,0.269 13.578,6.359 13.578,6.359 -3.246,3.32 -11.883,7.019 -21.781,7.019 -7.051,0 -14.742,-1.875 -21.59,-7.109" /></clipPath><clipPath
       id="clipPath304"
       clipPathUnits="userSpaceOnUse"><path
         id="path302"
         d="M 0,0 H 595.28 V 841.89 H 0 Z" /></clipPath><clipPath
       id="clipPath310"
       clipPathUnits="userSpaceOnUse"><path
         id="path308"
         d="m 320,653 h 53 v 42 h -53 z" /></clipPath><clipPath
       id="clipPath314"
       clipPathUnits="userSpaceOnUse"><path
         id="path312"
         d="m 320.578,694.426 h 51.68 v -40.48 h -51.68 z" /></clipPath><clipPath
       id="clipPath318"
       clipPathUnits="userSpaceOnUse"><path
         id="path316"
         d="m 320,653 h 53 v 42 h -53 z" /></clipPath><mask
       id="mask320"
       height="1"
       width="1"
       y="0"
       x="0"
       maskUnits="userSpaceOnUse"><g
         id="g334"
         transform="translate(0,-0.21997)"><g
           id="g332"
           clip-path="url(#clipPath310)"><g
             id="g322" /><g
             id="g330"><g
               id="g328"
               clip-path="url(#clipPath314)"><g
                 id="g326"
                 clip-path="url(#clipPath318)"><path
                   id="path324"
                   style="fill:#f386a8;fill-opacity:1;fill-rule:nonzero;stroke:none"
                   d="m 367.258,694.426 5,-33.52 -46.68,-6.961 -5,33.52 z" /></g></g></g></g></g></mask><clipPath
       id="clipPath342"
       clipPathUnits="userSpaceOnUse"><path
         id="path340"
         d="m 324,661 h 45 v 27 h -45 z" /></clipPath><clipPath
       id="clipPath346"
       clipPathUnits="userSpaceOnUse"><path
         id="path344"
         d="m 320.578,694.316 h 51.68 v -40.48 h -51.68 z" /></clipPath><clipPath
       id="clipPath350"
       clipPathUnits="userSpaceOnUse"><path
         id="path348"
         d="m 324,661 h 45 v 27 h -45 z" /></clipPath><clipPath
       id="clipPath372"
       clipPathUnits="userSpaceOnUse"><path
         id="path370"
         d="m 312,633.89 h 27 v 44 h -27 z" /></clipPath><clipPath
       id="clipPath382"
       clipPathUnits="userSpaceOnUse"><path
         id="path380"
         d="m 312,677.89 h 27 v -44 h -27 z" /></clipPath><clipPath
       id="clipPath388"
       clipPathUnits="userSpaceOnUse"><path
         id="path386"
         d="m 323.07,671.035 c 0.032,0 0.063,0 0.09,0 0.055,0 0.106,0 0.16,-0.008 1.118,-0.133 1.918,-1.145 1.782,-2.266 -0.133,-1.117 -1.149,-1.914 -2.262,-1.777 -1.121,0.133 -1.914,1.148 -1.781,2.265 0.086,0.789 0.632,1.418 1.343,1.672 l -1.148,6.594 c -16.797,-14.852 -6.469,-39.133 0.492,-43.492 0.844,1.39 2.949,5.305 4.805,12.269 2.883,-4.422 8.621,-7.937 10.129,-8.339 4.453,7.269 2.386,28.125 -14.762,39.714 z" /></clipPath><clipPath
       id="clipPath394"
       clipPathUnits="userSpaceOnUse"><path
         id="path392"
         d="M 0,0 H 595.28 V 841.89 H 0 Z" /></clipPath><clipPath
       id="clipPath400"
       clipPathUnits="userSpaceOnUse"><path
         id="path398"
         d="m 298,628 h 50 v 56 h -50 z" /></clipPath><clipPath
       id="clipPath404"
       clipPathUnits="userSpaceOnUse"><path
         id="path402"
         d="m 298.09,683.133 h 49.414 V 628.781 H 298.09 Z" /></clipPath><clipPath
       id="clipPath408"
       clipPathUnits="userSpaceOnUse"><path
         id="path406"
         d="m 298,628 h 50 v 56 h -50 z" /></clipPath><mask
       id="mask410"
       height="1"
       width="1"
       y="0"
       x="0"
       maskUnits="userSpaceOnUse"><g
         id="g424"
         transform="translate(0,-0.21997)"><g
           id="g422"
           clip-path="url(#clipPath400)"><g
             id="g412" /><g
             id="g420"><g
               id="g418"
               clip-path="url(#clipPath404)"><g
                 id="g416"
                 clip-path="url(#clipPath408)"><path
                   id="path414"
                   style="fill:#f386a8;fill-opacity:1;fill-rule:nonzero;stroke:none"
                   d="m 340.336,683.133 7.164,-48.051 -42.246,-6.301 -7.164,48.047 z" /></g></g></g></g></g></mask><clipPath
       id="clipPath432"
       clipPathUnits="userSpaceOnUse"><path
         id="path430"
         d="m 312,634 h 27 v 44 h -27 z" /></clipPath><clipPath
       id="clipPath436"
       clipPathUnits="userSpaceOnUse"><path
         id="path434"
         d="m 298.09,683.023 h 49.414 V 628.671 H 298.09 Z" /></clipPath><clipPath
       id="clipPath440"
       clipPathUnits="userSpaceOnUse"><path
         id="path438"
         d="m 312,634 h 27 v 44 h -27 z" /></clipPath><clipPath
       id="clipPath462"
       clipPathUnits="userSpaceOnUse"><path
         id="path460"
         d="m 282,683.89 h 38 v 40 h -38 z" /></clipPath><clipPath
       id="clipPath472"
       clipPathUnits="userSpaceOnUse"><path
         id="path470"
         d="m 282,723.89 h 38 v -40 h -38 z" /></clipPath><clipPath
       id="clipPath478"
       clipPathUnits="userSpaceOnUse"><path
         id="path476"
         d="m 297.922,710.156 c -4.707,2.402 -13.527,1.023 -15.035,0.629 -0.262,-8.493 15.933,-30.372 34.476,-25.715 l -4.703,4.172 c -0.062,-0.051 -0.121,-0.106 -0.195,-0.149 -0.938,-0.586 -2.172,-0.289 -2.754,0.649 -0.582,0.941 -0.289,2.175 0.648,2.757 0.942,0.586 2.172,0.293 2.758,-0.648 0.414,-0.668 0.379,-1.477 -0.008,-2.106 l 4.829,-4.281 c 7.429,21.336 -13.696,37.387 -21.946,37.727 -0.039,-1.633 0.082,-6.074 1.93,-13.035" /></clipPath><clipPath
       id="clipPath484"
       clipPathUnits="userSpaceOnUse"><path
         id="path482"
         d="M 0,0 H 595.28 V 841.89 H 0 Z" /></clipPath><clipPath
       id="clipPath490"
       clipPathUnits="userSpaceOnUse"><path
         id="path488"
         d="m 276,674 h 56 v 56 h -56 z" /></clipPath><clipPath
       id="clipPath494"
       clipPathUnits="userSpaceOnUse"><path
         id="path492"
         d="M 276.387,729.535 H 331.61 V 674.289 H 276.387 Z" /></clipPath><clipPath
       id="clipPath498"
       clipPathUnits="userSpaceOnUse"><path
         id="path496"
         d="m 276,674 h 56 v 56 h -56 z" /></clipPath><mask
       id="mask500"
       height="1"
       width="1"
       y="0"
       x="0"
       maskUnits="userSpaceOnUse"><g
         id="g514"
         transform="translate(0,-0.21997)"><g
           id="g512"
           clip-path="url(#clipPath490)"><g
             id="g502" /><g
             id="g510"><g
               id="g508"
               clip-path="url(#clipPath494)"><g
                 id="g506"
                 clip-path="url(#clipPath498)"><path
                   id="path504"
                   style="fill:#f386a8;fill-opacity:1;fill-rule:nonzero;stroke:none"
                   d="m 324.434,729.535 7.175,-48.078 -48.054,-7.168 -7.168,48.078 z" /></g></g></g></g></g></mask><clipPath
       id="clipPath522"
       clipPathUnits="userSpaceOnUse"><path
         id="path520"
         d="m 282,683 h 38 v 41 h -38 z" /></clipPath><clipPath
       id="clipPath526"
       clipPathUnits="userSpaceOnUse"><path
         id="path524"
         d="M 276.387,729.425 H 331.61 V 674.179 H 276.387 Z" /></clipPath><clipPath
       id="clipPath530"
       clipPathUnits="userSpaceOnUse"><path
         id="path528"
         d="m 282,683 h 38 v 41 h -38 z" /></clipPath><clipPath
       id="clipPath552"
       clipPathUnits="userSpaceOnUse"><path
         id="path550"
         d="m 320,683.89 h 30 v 42 h -30 z" /></clipPath><clipPath
       id="clipPath562"
       clipPathUnits="userSpaceOnUse"><path
         id="path560"
         d="m 320,725.89 h 30 v -42 h -30 z" /></clipPath><clipPath
       id="clipPath568"
       clipPathUnits="userSpaceOnUse"><path
         id="path566"
         d="m 322.137,685.007 2.976,5.324 c -0.539,0.442 -0.828,1.153 -0.664,1.875 0.231,1.032 1.25,1.68 2.281,1.454 1.036,-0.231 1.688,-1.254 1.458,-2.286 -0.231,-1.031 -1.25,-1.683 -2.286,-1.453 -0.066,0.016 -0.125,0.063 -0.191,0.086 l -3.149,-5.621 c 22.606,1.379 29.227,27.121 26.34,34.859 -1.515,-0.597 -5.562,-2.425 -11.265,-6.82 0.39,5.262 -2.032,11.543 -2.977,12.778 -7.914,-3.047 -18.867,-20.688 -12.523,-40.196" /></clipPath><clipPath
       id="clipPath574"
       clipPathUnits="userSpaceOnUse"><path
         id="path572"
         d="M 0,0 H 595.28 V 841.89 H 0 Z" /></clipPath><clipPath
       id="clipPath580"
       clipPathUnits="userSpaceOnUse"><path
         id="path578"
         d="m 309,679 h 49 v 52 h -49 z" /></clipPath><clipPath
       id="clipPath584"
       clipPathUnits="userSpaceOnUse"><path
         id="path582"
         d="m 309.84,730.562 h 47.902 V 679.246 H 309.84 Z" /></clipPath><clipPath
       id="clipPath588"
       clipPathUnits="userSpaceOnUse"><path
         id="path586"
         d="m 309,679 h 49 v 52 h -49 z" /></clipPath><mask
       id="mask590"
       height="1"
       width="1"
       y="0"
       x="0"
       maskUnits="userSpaceOnUse"><g
         id="g604"
         transform="translate(0,-0.21997)"><g
           id="g602"
           clip-path="url(#clipPath580)"><g
             id="g592" /><g
             id="g600"><g
               id="g598"
               clip-path="url(#clipPath584)"><g
                 id="g596"
                 clip-path="url(#clipPath588)"><path
                   id="path594"
                   style="fill:#f386a8;fill-opacity:1;fill-rule:nonzero;stroke:none"
                   d="m 351.008,730.562 6.734,-45.179 -41.168,-6.137 -6.738,45.176 z" /></g></g></g></g></g></mask><clipPath
       id="clipPath612"
       clipPathUnits="userSpaceOnUse"><path
         id="path610"
         d="m 320,684 h 30 v 42 h -30 z" /></clipPath><clipPath
       id="clipPath616"
       clipPathUnits="userSpaceOnUse"><path
         id="path614"
         d="m 309.84,730.452 h 47.902 V 679.136 H 309.84 Z" /></clipPath><clipPath
       id="clipPath620"
       clipPathUnits="userSpaceOnUse"><path
         id="path618"
         d="m 320,684 h 30 v 42 h -30 z" /></clipPath><clipPath
       id="clipPath642"
       clipPathUnits="userSpaceOnUse"><path
         id="path640"
         d="M 0,0 H 595.28 V 841.89 H 0 Z" /></clipPath></defs><g
     clip-path="url(#clipPath14)"
     transform="matrix(1.3333333,0,0,-1.3333333,-157.5512,995.45267)"
     id="g10"><g
       id="g16" /><g
       id="g18"><g
         clip-path="url(#clipPath24)"
         id="g20"><path
           id="path26"
           style="fill:#f386a8;fill-opacity:1;fill-rule:nonzero;stroke:none;stroke-width:1.5;stroke-linecap:butt;stroke-linejoin:miter;stroke-miterlimit:4;stroke-dasharray:none;stroke-opacity:1"
           d="m 259.398,643.167 c 0,0 -4.839,6.575 -8.949,12.379 -8.902,-7.031 -16.804,-14.976 -20.297,-32.64 -0.531,-2.7 -0.519,-5.528 -0.195,-8.383 -1.406,1.871 -2.965,3.722 -4.805,5.531 -17.371,17.066 -38.902,7.656 -38.902,7.656 l 4.016,-13.179 c 0,0 -7.692,-2.739 -14.434,-4.996 4.16,-10.547 9.488,-20.403 25.398,-28.844 1.875,-0.992 3.832,-1.727 5.821,-2.278 -1.918,-0.722 -3.836,-1.589 -5.731,-2.714 -20.922,-12.446 -22.351,-32.743 -22.351,-32.743 l 13.699,-1.503 c 0,0 -0.516,-8.141 -1.082,-15.231 11.328,-0.324 22.488,0.695 36.504,12 1.875,1.516 3.441,3.336 4.773,5.336 0.106,-2.09 0.364,-4.219 0.899,-6.363 5.883,-23.629 24.906,-30.848 24.906,-30.848 l 5.391,12.691 c 0,0 7.648,-2.839 14.273,-5.433 3.578,10.758 5.82,21.734 -0.965,38.426 -1.187,2.902 -2.969,5.515 -5.066,7.875 1.398,-0.368 2.84,-0.688 4.363,-0.907 24.09,-3.496 40.059,12.973 40.059,12.973 l -10.965,9.094 c 0,0 6.437,7.121 11.344,12.269 -8.602,7.391 -19.637,11.598 -37.645,11.645 -3.129,0 -6.133,-0.793 -8.988,-2.055 1.707,2.567 3.199,5.36 4.277,8.426 8.047,22.98 -3.887,39.457 -3.887,39.457 z m -17.246,-59.172 c 0.774,0.282 1.559,0.352 2.325,0.27 l 4.488,16.375 c -1.645,0.797 -2.805,2.434 -2.856,4.375 -0.058,2.762 2.121,5.055 4.891,5.121 2.758,0.067 5.047,-2.121 5.113,-4.883 0.067,-2.761 -2.117,-5.054 -4.875,-5.121 -0.195,0 -0.379,0.035 -0.566,0.047 l -4.488,-16.383 c 1.164,-0.562 2.121,-1.554 2.609,-2.859 0.074,-0.199 0.109,-0.399 0.156,-0.602 l 16.137,2.938 c 0.004,0.195 -0.008,0.394 0.008,0.597 0.316,2.813 2.851,4.836 5.66,4.524 2.812,-0.316 4.84,-2.848 4.527,-5.66 -0.316,-2.817 -2.847,-4.836 -5.66,-4.528 -1.992,0.231 -3.57,1.567 -4.215,3.325 l -16.347,-2.973 c -0.215,-1.848 -1.407,-3.508 -3.254,-4.227 l 5.097,-15.699 c 0.223,0.031 0.438,0.078 0.657,0.082 2.941,0.067 5.375,-2.258 5.449,-5.195 0.066,-2.938 -2.266,-5.383 -5.207,-5.445 -2.938,-0.071 -5.367,2.257 -5.446,5.199 -0.046,2.086 1.129,3.902 2.864,4.816 l -5.168,15.914 c -1.403,-0.031 -2.758,0.508 -3.75,1.492 l -13.012,-9.785 c 0.125,-0.234 0.262,-0.465 0.363,-0.73 1.114,-3.027 -0.437,-6.391 -3.468,-7.508 -3.036,-1.117 -6.395,0.43 -7.516,3.465 -1.113,3.023 0.434,6.391 3.465,7.512 2.191,0.804 4.539,0.207 6.101,-1.313 l 13.059,9.82 c -0.066,0.133 -0.141,0.254 -0.199,0.403 -0.352,0.965 -0.395,1.965 -0.184,2.902 l -13.433,9.117 c -0.153,-0.152 -0.286,-0.312 -0.454,-0.449 -2.242,-1.828 -5.535,-1.48 -7.363,0.762 -1.824,2.234 -1.484,5.535 0.758,7.359 2.238,1.828 5.543,1.488 7.371,-0.754 1.289,-1.59 1.473,-3.707 0.684,-5.457 l 13.132,-8.914 c 0.59,0.914 1.446,1.664 2.547,2.07" /><path
           id="path28"
           style="fill:#f386a8;fill-opacity:1;fill-rule:nonzero;stroke:none"
           d="m 243.273,614.456 -3.789,-20.82 -9.082,3.027" /><path
           id="path30"
           style="fill:none;fill-opacity:1;fill-rule:nonzero;stroke:none"
           d="m 242.137,609.535 -1.137,-18.93 -8.328,5.301 c 0,0 -1.516,8.898 -8.895,8.898 -7.382,0 -22.152,-6.625 -14.386,-14.387 l 20.632,-12.304 -8.707,-4.164 c 0,0 -19.312,-9.844 -9.089,-17.414 0,0 10.601,-9.465 18.55,-1.516 l 8.332,12.496 4.922,-8.332 c 0,0 -4.922,-18.551 11.735,-14.383 0,0 9.086,7.192 4.164,14.004 l -4.543,14.387 6.437,0.758 c 0,0 17.414,-4.543 18.168,9.464 0,0 -4.16,14.008 -17.793,8.329 l -4.918,6.058 c 0,0 8.328,7.949 1.133,13.25 0,0 -13.25,8.328 -16.277,-1.515" /><path
           id="path32"
           style="fill:none;fill-opacity:1;fill-rule:nonzero;stroke:none"
           d="m 241.285,585.523 c 0.742,0.289 1.508,0.367 2.25,0.305 l 4.063,15.945 c -1.61,0.738 -2.766,2.308 -2.844,4.191 -0.106,2.672 1.969,4.93 4.648,5.047 2.668,0.113 4.93,-1.969 5.039,-4.644 0.114,-2.676 -1.964,-4.934 -4.629,-5.047 -0.195,-0.004 -0.371,0.023 -0.554,0.035 l -4.063,-15.953 c 1.137,-0.528 2.086,-1.469 2.578,-2.727 0.075,-0.191 0.114,-0.383 0.161,-0.578 l 15.589,3.129 c 0,0.187 -0.019,0.379 -0.003,0.578 0.257,2.731 2.675,4.738 5.406,4.481 2.73,-0.254 4.742,-2.676 4.484,-5.403 -0.262,-2.734 -2.676,-4.742 -5.41,-4.488 -1.926,0.187 -3.484,1.457 -4.145,3.148 l -15.785,-3.168 c -0.179,-1.789 -1.304,-3.425 -3.078,-4.148 l 5.215,-15.125 c 0.211,0.035 0.418,0.086 0.633,0.09 2.851,0.117 5.246,-2.094 5.367,-4.946 0.117,-2.843 -2.098,-5.25 -4.945,-5.363 -2.848,-0.117 -5.242,2.098 -5.367,4.946 -0.083,2.023 1.023,3.804 2.691,4.718 l -5.289,15.328 c -1.359,-0.054 -2.68,0.446 -3.656,1.383 l -12.442,-9.707 c 0.129,-0.226 0.262,-0.449 0.36,-0.703 1.136,-2.914 -0.301,-6.203 -3.219,-7.336 -2.922,-1.141 -6.211,0.305 -7.348,3.219 -1.133,2.918 0.309,6.207 3.227,7.344 2.113,0.82 4.394,0.281 5.933,-1.164 l 12.489,9.742 c -0.071,0.129 -0.149,0.25 -0.203,0.39 -0.364,0.93 -0.415,1.895 -0.231,2.805 l -13.176,8.598 c -0.14,-0.145 -0.273,-0.301 -0.429,-0.434 -2.145,-1.812 -5.34,-1.535 -7.149,0.606 -1.808,2.132 -1.535,5.339 0.606,7.148 2.136,1.805 5.339,1.535 7.152,-0.609 1.277,-1.512 1.496,-3.563 0.762,-5.27 l 12.879,-8.414 c 0.554,0.898 1.378,1.637 2.433,2.051" /><path
           id="path34"
           style="fill:#f386a8;fill-opacity:1;fill-rule:nonzero;stroke:#none;stroke-width:1.5;stroke-linecap:butt;stroke-linejoin:miter;stroke-miterlimit:4;stroke-dasharray:none;stroke-opacity:1"
           d="m 380.371,644.558 c 0,0 -5.683,7.727 -10.512,14.547 -10.457,-8.262 -19.742,-17.594 -23.843,-38.352 -0.625,-3.172 -0.614,-6.492 -0.235,-9.843 -1.648,2.191 -3.48,4.371 -5.644,6.496 -20.41,20.05 -45.703,8.996 -45.703,8.996 l 4.714,-15.485 c 0,0 -9.039,-3.218 -16.953,-5.871 4.887,-12.394 11.145,-23.972 29.836,-33.886 2.203,-1.168 4.5,-2.032 6.84,-2.68 -2.25,-0.848 -4.504,-1.867 -6.73,-3.192 -24.586,-14.617 -26.266,-38.464 -26.266,-38.464 l 16.098,-1.766 c 0,0 -0.606,-9.563 -1.274,-17.898 13.313,-0.379 26.422,0.816 42.895,14.101 2.203,1.781 4.039,3.922 5.605,6.266 0.121,-2.453 0.426,-4.949 1.055,-7.473 6.91,-27.758 29.266,-36.242 29.266,-36.242 l 6.332,14.906 c 0,0 8.988,-3.332 16.765,-6.379 4.203,12.637 6.84,25.535 -1.133,45.145 -1.39,3.41 -3.484,6.48 -5.953,9.254 1.645,-0.43 3.336,-0.805 5.125,-1.067 28.313,-4.109 47.071,15.246 47.071,15.246 l -12.883,10.68 c 0,0 7.558,8.367 13.328,14.414 -10.11,8.684 -23.07,13.629 -44.231,13.68 -3.675,0.004 -7.207,-0.93 -10.562,-2.41 2.012,3.015 3.758,6.297 5.027,9.902 9.453,26.996 -4.566,46.355 -4.566,46.355 z m -20.258,-69.516 c 0.907,0.328 1.832,0.411 2.731,0.317 l 5.273,19.238 c -1.933,0.934 -3.301,2.859 -3.355,5.141 -0.067,3.242 2.492,5.937 5.746,6.015 3.238,0.078 5.93,-2.492 6.008,-5.738 0.078,-3.246 -2.489,-5.937 -5.727,-6.016 -0.23,0 -0.445,0.039 -0.668,0.055 l -5.269,-19.25 c 1.363,-0.66 2.492,-1.824 3.062,-3.359 0.086,-0.235 0.129,-0.469 0.184,-0.707 l 18.961,3.453 c 0.003,0.23 -0.012,0.461 0.007,0.699 0.375,3.305 3.348,5.688 6.653,5.32 3.301,-0.375 5.683,-3.347 5.316,-6.652 -0.371,-3.309 -3.344,-5.684 -6.652,-5.316 -2.336,0.265 -4.192,1.836 -4.949,3.902 l -19.207,-3.492 c -0.254,-2.168 -1.657,-4.121 -3.825,-4.965 l 5.993,-18.442 c 0.257,0.032 0.511,0.09 0.769,0.09 3.457,0.082 6.313,-2.652 6.398,-6.105 0.083,-3.449 -2.66,-6.32 -6.109,-6.395 -3.457,-0.082 -6.312,2.653 -6.402,6.106 -0.055,2.453 1.328,4.59 3.363,5.664 l -6.07,18.695 c -1.653,-0.035 -3.242,0.598 -4.406,1.754 l -15.29,-11.5 c 0.153,-0.273 0.309,-0.543 0.426,-0.851 1.313,-3.563 -0.512,-7.512 -4.07,-8.825 -3.566,-1.316 -7.516,0.508 -8.832,4.067 -1.313,3.558 0.512,7.511 4.07,8.828 2.57,0.945 5.332,0.242 7.168,-1.543 l 15.344,11.535 c -0.078,0.16 -0.168,0.305 -0.234,0.48 -0.418,1.129 -0.461,2.305 -0.219,3.407 l -15.781,10.711 c -0.176,-0.18 -0.336,-0.364 -0.532,-0.524 -2.636,-2.148 -6.508,-1.742 -8.652,0.891 -2.145,2.629 -1.746,6.504 0.891,8.648 2.628,2.145 6.507,1.746 8.66,-0.886 1.511,-1.868 1.73,-4.356 0.801,-6.411 l 15.433,-10.476 c 0.688,1.078 1.699,1.957 2.992,2.437" /><path
           id="path36"
           style="fill:none;fill-opacity:1;fill-rule:nonzero;stroke:none"
           d="m 360.094,605.046 -1.336,-22.238 -9.785,6.227 c 0,0 -1.778,10.453 -10.453,10.453 -8.672,0 -26.02,-7.785 -16.903,-16.903 l 24.242,-14.457 -10.23,-4.89 c 0,0 -22.684,-11.567 -10.676,-20.461 0,0 12.453,-11.121 21.797,-1.782 l 9.785,14.68 5.781,-9.785 c 0,0 -5.781,-21.797 13.789,-16.902 0,0 10.676,8.449 4.891,16.457 l -5.336,16.902 7.563,0.891 c 0,0 20.461,-5.34 21.351,11.121 0,0 -4.894,16.457 -20.906,9.785 l -5.781,7.113 c 0,0 9.785,9.344 1.332,15.571 0,0 -15.567,9.785 -19.125,-1.782" /><path
           id="path38"
           style="fill:none;fill-opacity:1;fill-rule:nonzero;stroke:none"
           d="m 359.094,576.835 c 0.875,0.34 1.769,0.434 2.64,0.356 l 4.774,18.738 c -1.891,0.867 -3.246,2.707 -3.34,4.922 -0.125,3.141 2.316,5.793 5.461,5.93 3.141,0.132 5.789,-2.313 5.926,-5.453 0.129,-3.145 -2.313,-5.801 -5.446,-5.934 -0.222,-0.004 -0.433,0.031 -0.648,0.043 l -4.773,-18.742 c 1.335,-0.621 2.449,-1.727 3.027,-3.203 0.09,-0.227 0.133,-0.454 0.191,-0.68 l 18.317,3.672 c -0.004,0.222 -0.024,0.449 -0.004,0.683 0.301,3.207 3.14,5.563 6.347,5.262 3.211,-0.301 5.571,-3.144 5.27,-6.348 -0.305,-3.214 -3.145,-5.57 -6.356,-5.273 -2.261,0.219 -4.089,1.711 -4.867,3.695 l -18.547,-3.715 c -0.211,-2.105 -1.531,-4.023 -3.617,-4.875 l 6.125,-17.769 c 0.246,0.039 0.492,0.098 0.746,0.101 3.348,0.141 6.164,-2.46 6.305,-5.804 0.137,-3.344 -2.469,-6.172 -5.809,-6.305 -3.347,-0.141 -6.16,2.461 -6.304,5.809 -0.102,2.375 1.199,4.468 3.156,5.543 l -6.211,18.011 c -1.598,-0.062 -3.148,0.524 -4.297,1.625 l -14.613,-11.406 c 0.148,-0.265 0.308,-0.527 0.422,-0.824 1.336,-3.426 -0.36,-7.289 -3.785,-8.621 -3.438,-1.34 -7.293,0.355 -8.633,3.785 -1.332,3.426 0.363,7.289 3.793,8.625 2.476,0.965 5.16,0.332 6.972,-1.367 l 14.668,11.445 c -0.078,0.152 -0.172,0.293 -0.238,0.457 -0.422,1.094 -0.484,2.227 -0.269,3.297 l -15.481,10.105 c -0.168,-0.171 -0.316,-0.359 -0.504,-0.515 -2.519,-2.129 -6.273,-1.801 -8.398,0.715 -2.125,2.508 -1.809,6.273 0.711,8.398 2.511,2.121 6.273,1.801 8.402,-0.715 1.504,-1.777 1.758,-4.187 0.895,-6.191 l 15.132,-9.887 c 0.653,1.055 1.618,1.926 2.86,2.41" /><path
           id="path40"
           style="fill:#25479d;fill-opacity:1;fill-rule:nonzero;stroke:none"
           d="m 184.949,475.824 9.117,17.777 c 1.262,2.465 1.891,4.133 1.891,5.004 0,1.457 -1.051,2.187 -3.152,2.187 -2.106,0 -4.875,-0.625 -8.317,-1.875 -3.437,-1.25 -6.843,-2.867 -10.207,-4.847 -2.484,-1.461 -5.043,-3.207 -7.679,-5.239 -2.641,-2.035 -4.981,-4.128 -7.024,-6.281 -2.047,-2.156 -3.89,-4.398 -5.535,-6.726 z m -4.418,-8.547 h -31.707 l -0.172,-0.313 c -1.605,-3.094 -3.019,-6.367 -4.242,-9.824 -1.222,-3.461 -2.246,-6.906 -3.066,-10.348 -0.824,-3.441 -1.328,-6.535 -1.52,-9.277 l -0.172,-3.129 c -0.117,-2.258 -0.574,-3.891 -1.379,-4.898 -0.8,-1.008 -2.023,-1.512 -3.668,-1.512 -3.515,0 -5.273,2.207 -5.273,6.617 0,4.59 0.762,9.817 2.293,15.692 1.527,5.871 3.535,11.433 6.02,16.679 l 0.171,0.313 h -9.691 c -1.488,0 -2.598,0.043 -3.324,0.129 -0.727,0.086 -1.414,0.289 -2.063,0.601 -1.3,0.696 -1.949,1.754 -1.949,3.18 0,1.875 0.934,3.215 2.809,4.012 0.953,0.418 2.828,0.625 5.617,0.625 h 13.246 l 0.113,0.261 c 7.34,11.535 17.125,20.469 29.36,26.793 2.597,1.356 5.234,2.52 7.91,3.492 2.676,0.973 5.238,1.696 7.683,2.165 2.446,0.468 4.723,0.703 6.825,0.703 2.371,0 4.48,-0.383 6.336,-1.145 1.855,-0.765 3.285,-1.836 4.3,-3.207 1.012,-1.375 1.52,-2.996 1.52,-4.875 0,-2.363 -1.32,-6.117 -3.957,-11.258 L 179.5,443.82 c -1.184,-2.258 -2.207,-3.778 -3.066,-4.559 -0.86,-0.785 -1.977,-1.176 -3.356,-1.176 -1.34,0 -2.457,0.391 -3.351,1.176 -0.899,0.781 -1.348,1.746 -1.348,2.891 0,0.941 0.535,2.449 1.605,4.535 z" /><path
           id="path42"
           style="fill:#25479d;fill-opacity:1;fill-rule:nonzero;stroke:none"
           d="m 235.344,476.503 c 0.383,0.035 0.785,0.051 1.207,0.051 3.172,0 5.722,-0.719 7.652,-2.164 1.93,-1.441 2.899,-3.324 2.899,-5.652 0,-1.879 -0.641,-3.703 -1.922,-5.477 -1.282,-1.769 -3.567,-4.047 -6.852,-6.828 l -4.531,-3.805 c -2.371,-1.945 -3.555,-3.472 -3.555,-4.586 0,-0.66 0.266,-1.179 0.805,-1.562 0.535,-0.383 1.238,-0.574 2.121,-0.574 1.797,0 4.375,0.64 7.738,1.929 3.364,1.285 6.692,2.868 9.977,4.743 1.875,1.042 3.097,1.683 3.672,1.929 0.574,0.242 1.183,0.363 1.836,0.363 1.066,0 1.957,-0.339 2.664,-1.015 0.707,-0.68 1.062,-1.52 1.062,-2.527 0,-1.114 -0.539,-2.192 -1.605,-3.235 -1.071,-1.043 -2.907,-2.273 -5.508,-3.699 -4.125,-2.223 -7.938,-3.832 -11.438,-4.82 -3.496,-0.993 -6.949,-1.489 -10.347,-1.489 -3.824,0 -6.836,0.785 -9.031,2.348 -2.2,1.562 -3.297,3.684 -3.297,6.359 0,2.43 1.164,4.864 3.496,7.297 1.836,1.809 4.605,4.223 8.316,7.246 2.637,2.118 4.211,3.457 4.731,4.012 0.515,0.559 0.773,1.164 0.773,1.824 0,0.801 -0.344,1.356 -1.035,1.668 -0.688,0.313 -1.852,0.489 -3.496,0.524 -0.801,-1.668 -1.625,-2.852 -2.465,-3.547 -0.84,-0.696 -1.875,-1.039 -3.098,-1.039 -1.261,0 -2.301,0.355 -3.125,1.066 -0.82,0.711 -1.23,1.625 -1.23,2.738 0,0.797 0.496,2.188 1.488,4.168 l 3.328,6.411 c 1.145,2.191 2.102,3.625 2.867,4.3 0.762,0.68 1.797,1.02 3.094,1.02 1.223,0 2.258,-0.352 3.098,-1.043 0.84,-0.695 1.262,-1.602 1.262,-2.711 0,-0.801 -0.461,-2.086 -1.375,-3.859 z" /><path
           id="path44"
           style="fill:#25479d;fill-opacity:1;fill-rule:nonzero;stroke:none"
           d="m 272.242,468.683 -7.969,-15.43 c -1.226,-2.429 -1.835,-4.082 -1.835,-4.949 0,-0.937 0.535,-1.406 1.605,-1.406 1.109,0 2.617,0.469 4.531,1.406 2.367,1.109 4.793,2.379 7.281,3.805 l 2.981,1.769 c 1.297,0.766 2.504,1.149 3.613,1.149 0.649,0 1.289,-0.164 1.918,-0.496 0.633,-0.328 1.129,-0.782 1.492,-1.356 0.364,-0.57 0.547,-1.152 0.547,-1.742 0,-1.184 -0.633,-2.34 -1.894,-3.469 -1.262,-1.129 -3.496,-2.527 -6.707,-4.195 -7.227,-3.789 -12.844,-5.684 -16.86,-5.684 -2.789,0 -5.007,0.653 -6.652,1.957 -1.641,1.301 -2.465,3.082 -2.465,5.34 0,2.262 0.977,5.301 2.926,9.125 l 7.281,14.176 h -0.515 c -2.446,0 -4.09,0.227 -4.93,0.68 -1.227,0.66 -1.836,1.648 -1.836,2.968 0,0.696 0.23,1.391 0.687,2.086 0.461,0.696 1.09,1.215 1.891,1.567 0.879,0.344 2.602,0.519 5.16,0.519 h 3.559 l 3.554,6.879 c 1.106,2.156 2.055,3.578 2.836,4.278 0.786,0.691 1.829,1.039 3.125,1.039 1.223,0 2.258,-0.348 3.098,-1.039 0.84,-0.7 1.262,-1.582 1.262,-2.661 0,-0.902 -0.516,-2.328 -1.551,-4.273 l -2.121,-4.223 h 3.672 c 2.523,0 4.281,-0.269 5.273,-0.808 0.996,-0.539 1.492,-1.45 1.492,-2.739 0,-1.734 -0.859,-2.968 -2.582,-3.699 -0.839,-0.383 -2.558,-0.574 -5.16,-0.574 z" /><path
           id="path46"
           style="fill:#25479d;fill-opacity:1;fill-rule:nonzero;stroke:none"
           d="m 292.969,451.171 c 0,-1.426 0.371,-2.547 1.117,-3.363 0.746,-0.816 1.75,-1.227 3.012,-1.227 2.597,0 5.234,2.418 7.91,7.247 2.105,3.824 3.152,7.332 3.152,10.531 0,1.527 -0.324,2.691 -0.972,3.492 -0.653,0.797 -1.606,1.199 -2.868,1.199 -1.531,0 -3.008,-0.68 -4.445,-2.035 -1.43,-1.355 -2.836,-3.422 -4.215,-6.199 -1.797,-3.758 -2.691,-6.969 -2.691,-9.645 m -10.149,0.102 c 0,3.234 0.602,6.394 1.805,9.488 1.203,3.094 2.898,5.906 5.074,8.445 2.18,2.536 4.633,4.508 7.367,5.914 2.735,1.411 5.516,2.114 8.344,2.114 2.637,0 4.902,-0.516 6.793,-1.539 1.895,-1.024 3.344,-2.5 4.359,-4.43 1.012,-1.93 1.52,-4.25 1.52,-6.961 0,-4.414 -1.059,-8.652 -3.184,-12.719 -2.121,-4.062 -4.929,-7.332 -8.425,-9.797 -3.5,-2.468 -7.121,-3.703 -10.868,-3.703 -3.863,0 -6.957,1.2 -9.289,3.598 -2.332,2.398 -3.496,5.594 -3.496,9.59" /><path
           id="path48"
           style="fill:#25479d;fill-opacity:1;fill-rule:nonzero;stroke:none"
           d="m 343.34,442.777 -0.805,-0.414 c -2.98,-1.602 -5.445,-2.711 -7.394,-3.336 -1.95,-0.625 -3.903,-0.942 -5.852,-0.942 -2.676,0 -4.836,0.715 -6.477,2.137 -1.644,1.426 -2.464,3.285 -2.464,5.578 0,2.016 1.09,5.145 3.265,9.383 l 8.543,16.734 c 1.071,2.082 2.02,3.493 2.84,4.219 0.82,0.731 1.883,1.098 3.184,1.098 1.297,0 2.347,-0.348 3.152,-1.043 0.805,-0.696 1.203,-1.582 1.203,-2.66 0,-0.797 -0.515,-2.223 -1.547,-4.274 l -7.629,-14.906 -0.511,-0.938 c -1.301,-2.468 -1.95,-4.136 -1.95,-5.007 0,-1.039 0.571,-1.563 1.719,-1.563 1.184,0 2.645,0.469 4.387,1.406 1.738,0.942 3.984,2.454 6.734,4.536 l 9.805,19.132 c 1.07,2.082 2.019,3.493 2.84,4.219 0.82,0.731 1.883,1.098 3.183,1.098 1.297,0 2.348,-0.348 3.153,-1.043 0.804,-0.696 1.203,-1.582 1.203,-2.66 0,-0.797 -0.516,-2.223 -1.547,-4.274 l -8.43,-16.472 -0.746,-1.356 c -0.801,-1.598 -1.203,-2.641 -1.203,-3.125 0,-0.418 0.199,-0.793 0.602,-1.121 0.402,-0.332 0.812,-0.496 1.234,-0.496 1.91,0 5.578,2.086 11.008,6.258 1.836,1.457 3.344,2.187 4.531,2.187 1.109,0 2.043,-0.324 2.809,-0.965 0.761,-0.644 1.144,-1.433 1.144,-2.371 0,-1.668 -1.89,-3.894 -5.676,-6.672 -2.75,-2.086 -5.742,-3.781 -8.972,-5.082 -3.231,-1.304 -5.992,-1.957 -8.285,-1.957 -1.719,0 -3.145,0.375 -4.274,1.121 -1.125,0.747 -2.051,1.938 -2.777,3.571" /><path
           id="path50"
           style="fill:#25479d;fill-opacity:1;fill-rule:nonzero;stroke:none"
           d="m 390.441,467.226 c -2.601,-1.289 -5.066,-2.945 -7.398,-4.981 -2.332,-2.031 -4.242,-4.152 -5.734,-6.359 -1.489,-2.207 -2.235,-4.055 -2.235,-5.551 0,-2.57 1.738,-3.855 5.219,-3.855 1.984,0 4.547,0.469 7.68,1.406 3.097,0.867 6.078,1.93 8.945,3.18 l 5.504,2.449 c 1.953,0.867 3.5,1.305 4.648,1.305 1.067,0 1.938,-0.34 2.606,-1.016 0.668,-0.68 1.004,-1.504 1.004,-2.476 0,-1.391 -0.821,-2.723 -2.465,-3.989 -1.645,-1.269 -4.531,-2.789 -8.66,-4.562 -3.782,-1.563 -7.317,-2.735 -10.606,-3.516 -3.289,-0.785 -6.383,-1.176 -9.289,-1.176 -3.019,0 -5.629,0.438 -7.824,1.305 -2.199,0.867 -3.863,2.152 -4.992,3.855 -1.125,1.704 -1.688,3.735 -1.688,6.102 0,2.188 0.551,4.481 1.66,6.879 1.11,2.398 2.735,4.797 4.875,7.195 2.141,2.395 4.586,4.567 7.34,6.512 3.016,2.191 6.199,3.953 9.547,5.293 3.344,1.336 6.199,2.008 8.57,2.008 1.493,0 2.688,-0.36 3.582,-1.071 0.899,-0.71 1.352,-1.64 1.352,-2.789 0,-0.695 -0.23,-1.668 -0.691,-2.918 -0.649,-1.562 -1.012,-2.398 -1.09,-2.5 l -1.891,-3.753 -1.203,-2.348 c -1.109,-2.121 -2.543,-3.18 -4.301,-3.18 -1.226,0 -2.226,0.332 -3.011,0.992 -0.782,0.661 -1.176,1.477 -1.176,2.45 0,1.148 0.574,2.847 1.722,5.109" /><path
           id="path52"
           style="fill:#25479d;fill-opacity:1;fill-rule:nonzero;stroke:none"
           d="m 424.984,473.898 c 3.172,2.222 6.383,3.336 9.633,3.336 2.371,0 4.281,-0.625 5.735,-1.879 1.453,-1.25 2.179,-2.899 2.179,-4.949 0,-2.539 -1.07,-5.754 -3.211,-9.645 l -2.582,-4.637 -2.351,-4.277 c -0.879,-1.598 -1.317,-2.727 -1.317,-3.387 0,-1.183 0.59,-1.773 1.778,-1.773 0.574,0 1.203,0.137 1.89,0.418 0.688,0.277 1.567,0.746 2.641,1.406 1.066,0.66 2.598,1.719 4.586,3.18 2.023,1.426 3.43,2.336 4.211,2.738 0.785,0.399 1.597,0.598 2.441,0.598 0.992,0 1.852,-0.332 2.578,-0.989 0.727,-0.66 1.09,-1.445 1.09,-2.347 0,-1.496 -1.168,-3.18 -3.496,-5.055 -2.105,-1.668 -4.324,-3.156 -6.652,-4.457 -2.332,-1.305 -4.578,-2.312 -6.739,-3.023 -2.16,-0.711 -4.062,-1.071 -5.703,-1.071 -2.679,0 -4.855,0.739 -6.539,2.215 -1.683,1.477 -2.523,3.399 -2.523,5.762 0,1.285 0.402,2.937 1.207,4.953 0.687,1.805 2.484,5.262 5.387,10.371 1.722,3.094 2.582,4.969 2.582,5.629 0,0.973 -0.555,1.461 -1.664,1.461 -1.145,0 -2.77,-0.566 -4.875,-1.695 -2.102,-1.129 -4.106,-2.457 -6.02,-3.989 l -9.918,-19.39 c -0.766,-1.528 -1.406,-2.629 -1.922,-3.309 -0.515,-0.676 -1.137,-1.191 -1.863,-1.539 -0.574,-0.207 -1.203,-0.363 -1.891,-0.469 h -0.344 c -1.183,0 -2.199,0.368 -3.039,1.098 -0.843,0.73 -1.261,1.633 -1.261,2.707 0,0.801 0.515,2.191 1.547,4.172 l 24.023,46.859 c 1.148,2.192 2.102,3.625 2.867,4.301 0.766,0.68 1.797,1.016 3.098,1.016 1.262,0 2.301,-0.348 3.125,-1.043 0.82,-0.696 1.234,-1.598 1.234,-2.707 0,-0.836 -0.519,-2.243 -1.551,-4.223 z" /></g></g><g
       id="g54"><g
         clip-path="url(#clipPath60)"
         id="g56"><g
           clip-path="url(#clipPath66)"
           id="g62"><g
             clip-path="url(#clipPath72)"
             id="g68"><g
               id="g74" /><g
               mask="url(#mask106)"
               id="g130"><g
                 id="g132" /><g
                 id="g184"><g
                   id="g182"
                   clip-path="url(#clipPath136)"><g
                     id="g164" /><g
                     id="g180"><g
                       id="g178"
                       clip-path="url(#clipPath140)"><g
                         id="g176"
                         clip-path="url(#clipPath144)"><g
                           id="g174"
                           clip-path="url(#clipPath148)"><g
                             id="g172"
                             clip-path="url(#clipPath152)"><g
                               id="g170"><g
                                 id="g168"><path
                                   id="path166"
                                   style="fill:url(#radialGradient162);stroke:none"
                                   d="m 318,685 h 1 v 0.89001 h -1 z" /></g></g></g></g></g></g></g></g></g></g></g></g></g></g><g
       id="g186"><g
         clip-path="url(#clipPath192)"
         id="g188"><path
           id="path194"
           style="fill:#f386a8;fill-opacity:1;fill-rule:nonzero;stroke:none"
           d="m 277.727,663.777 c 0.031,-0.008 4.738,-1.063 13.871,0.179 -4.368,-4.636 -5.274,-14.043 -5.274,-14.043 7.969,-0.175 28.11,9.938 30.992,30.571 l -5.488,-3.137 c 0.039,-0.094 0.078,-0.187 0.102,-0.289 0.277,-1.207 -0.469,-2.41 -1.676,-2.691 -1.203,-0.282 -2.406,0.472 -2.688,1.679 -0.277,1.203 0.477,2.406 1.676,2.684 0.871,0.203 1.731,-0.137 2.254,-0.789 l 5.332,3.047 c -3.922,1.187 -7.609,1.703 -11.027,1.703 -16.395,0.004 -26.629,-11.938 -28.074,-18.914" /></g></g><g
       id="g196"><g
         clip-path="url(#clipPath202)"
         id="g198"><g
           clip-path="url(#clipPath208)"
           id="g204"><g
             clip-path="url(#clipPath214)"
             id="g210"><g
               id="g216" /><g
               mask="url(#mask230)"
               id="g246"><g
                 id="g248" /><g
                 id="g274"><g
                   id="g272"
                   clip-path="url(#clipPath252)"><g
                     id="g262" /><g
                     id="g270"><g
                       id="g268"
                       clip-path="url(#clipPath256)"><g
                         id="g266"
                         clip-path="url(#clipPath260)"><path
                           id="path264"
                           style="fill:#f386a8;fill-opacity:1;fill-rule:nonzero;stroke:none"
                           d="m 316.457,688.472 5.668,-38.016 -43.535,-6.492 -5.668,38.016 z" /></g></g></g></g></g></g></g></g></g></g><g
       id="g276"><g
         clip-path="url(#clipPath282)"
         id="g278"><path
           id="path284"
           style="fill:#f386a8;fill-opacity:1;fill-rule:nonzero;stroke:none"
           d="m 324.836,680.847 6.637,-1.328 c 0.027,0.07 0.027,0.144 0.062,0.215 0.512,0.953 1.699,1.316 2.656,0.808 0.957,-0.507 1.317,-1.695 0.809,-2.652 -0.512,-0.957 -1.695,-1.32 -2.652,-0.809 -0.672,0.36 -1.032,1.059 -1.02,1.774 l -6.699,1.344 c 14.203,-19.821 32.883,-20.008 40.043,-15.184 -0.02,0.027 -2.649,4.066 -10.047,9.563 6.359,0.269 13.582,6.359 13.582,6.359 -3.246,3.32 -11.883,7.019 -21.781,7.019 -7.051,0 -14.742,-1.875 -21.59,-7.109" /></g></g><g
       id="g286"><g
         clip-path="url(#clipPath292)"
         id="g288"><g
           clip-path="url(#clipPath298)"
           id="g294"><g
             clip-path="url(#clipPath304)"
             id="g300"><g
               id="g306" /><g
               mask="url(#mask320)"
               id="g336"><g
                 id="g338" /><g
                 id="g364"><g
                   id="g362"
                   clip-path="url(#clipPath342)"><g
                     id="g352" /><g
                     id="g360"><g
                       id="g358"
                       clip-path="url(#clipPath346)"><g
                         id="g356"
                         clip-path="url(#clipPath350)"><path
                           id="path354"
                           style="fill:#f386a8;fill-opacity:1;fill-rule:nonzero;stroke:none"
                           d="m 367.258,694.316 5,-33.52 -46.68,-6.961 -5,33.52 z" /></g></g></g></g></g></g></g></g></g></g><g
       id="g366"><g
         clip-path="url(#clipPath372)"
         id="g368"><path
           id="path374"
           style="fill:#f386a8;fill-opacity:1;fill-rule:nonzero;stroke:none"
           d="m 323.07,671.035 c 0.028,0 0.063,0 0.094,0 0.051,0 0.102,0 0.156,-0.008 1.118,-0.133 1.914,-1.145 1.782,-2.266 -0.133,-1.117 -1.149,-1.914 -2.262,-1.781 -1.121,0.137 -1.914,1.152 -1.781,2.269 0.086,0.789 0.632,1.418 1.343,1.672 l -1.148,6.594 c -16.797,-14.852 -6.469,-39.129 0.492,-43.492 0.848,1.39 2.949,5.305 4.805,12.269 2.883,-4.422 8.625,-7.937 10.129,-8.34 4.453,7.27 2.386,28.126 -14.762,39.719 z" /></g></g><g
       id="g376"><g
         clip-path="url(#clipPath382)"
         id="g378"><g
           clip-path="url(#clipPath388)"
           id="g384"><g
             clip-path="url(#clipPath394)"
             id="g390"><g
               id="g396" /><g
               mask="url(#mask410)"
               id="g426"><g
                 id="g428" /><g
                 id="g454"><g
                   id="g452"
                   clip-path="url(#clipPath432)"><g
                     id="g442" /><g
                     id="g450"><g
                       id="g448"
                       clip-path="url(#clipPath436)"><g
                         id="g446"
                         clip-path="url(#clipPath440)"><path
                           id="path444"
                           style="fill:#f386a8;fill-opacity:1;fill-rule:nonzero;stroke:none"
                           d="m 340.336,683.023 7.164,-48.051 -42.246,-6.301 -7.164,48.047 z" /></g></g></g></g></g></g></g></g></g></g><g
       id="g456"><g
         clip-path="url(#clipPath462)"
         id="g458"><path
           id="path464"
           style="fill:#f386a8;fill-opacity:1;fill-rule:nonzero;stroke:none"
           d="m 297.918,710.156 c -4.703,2.402 -13.523,1.023 -15.031,0.629 -0.262,-8.493 15.933,-30.372 34.476,-25.715 l -4.703,4.172 c -0.062,-0.051 -0.121,-0.106 -0.195,-0.149 -0.938,-0.586 -2.172,-0.289 -2.754,0.649 -0.582,0.941 -0.293,2.175 0.648,2.761 0.942,0.582 2.172,0.289 2.758,-0.656 0.414,-0.664 0.379,-1.473 -0.008,-2.102 l 4.829,-4.281 c 7.429,21.336 -13.696,37.387 -21.946,37.727 -0.039,-1.633 0.082,-6.074 1.926,-13.035" /></g></g><g
       id="g466"><g
         clip-path="url(#clipPath472)"
         id="g468"><g
           clip-path="url(#clipPath478)"
           id="g474"><g
             clip-path="url(#clipPath484)"
             id="g480"><g
               id="g486" /><g
               mask="url(#mask500)"
               id="g516"><g
                 id="g518" /><g
                 id="g544"><g
                   id="g542"
                   clip-path="url(#clipPath522)"><g
                     id="g532" /><g
                     id="g540"><g
                       id="g538"
                       clip-path="url(#clipPath526)"><g
                         id="g536"
                         clip-path="url(#clipPath530)"><path
                           id="path534"
                           style="fill:#f386a8;fill-opacity:1;fill-rule:nonzero;stroke:none"
                           d="m 324.434,729.425 7.175,-48.078 -48.054,-7.168 -7.168,48.078 z" /></g></g></g></g></g></g></g></g></g></g><g
       id="g546"><g
         clip-path="url(#clipPath552)"
         id="g548"><path
           id="path554"
           style="fill:#f386a8;fill-opacity:1;fill-rule:nonzero;stroke:none"
           d="m 322.137,685.007 2.976,5.324 c -0.539,0.446 -0.828,1.153 -0.664,1.875 0.231,1.032 1.25,1.68 2.285,1.454 1.036,-0.231 1.684,-1.254 1.454,-2.286 -0.231,-1.031 -1.25,-1.683 -2.286,-1.453 -0.07,0.016 -0.125,0.063 -0.195,0.086 l -3.141,-5.621 c 22.602,1.379 29.223,27.121 26.34,34.859 -1.519,-0.593 -5.566,-2.425 -11.273,-6.82 0.394,5.262 -2.024,11.543 -2.973,12.777 -7.914,-3.046 -18.867,-20.687 -12.523,-40.195" /></g></g><g
       id="g556"><g
         clip-path="url(#clipPath562)"
         id="g558"><g
           clip-path="url(#clipPath568)"
           id="g564"><g
             clip-path="url(#clipPath574)"
             id="g570"><g
               id="g576" /><g
               mask="url(#mask590)"
               id="g606"><g
                 id="g608" /><g
                 id="g634"><g
                   id="g632"
                   clip-path="url(#clipPath612)"><g
                     id="g622" /><g
                     id="g630"><g
                       id="g628"
                       clip-path="url(#clipPath616)"><g
                         id="g626"
                         clip-path="url(#clipPath620)"><path
                           id="path624"
                           style="fill:#f386a8;fill-opacity:1;fill-rule:nonzero;stroke:none"
                           d="m 351.008,730.452 6.734,-45.179 -41.168,-6.137 -6.738,45.176 z" /></g></g></g></g></g></g></g></g></g></g><g
       id="g636"><g
         clip-path="url(#clipPath642)"
         id="g638"><path
           id="path644"
           style="fill:#8cc640;fill-opacity:1;fill-rule:nonzero;stroke:none"
           d="m 420.789,687.355 c 0,0 -6.301,-29.418 -45.531,-27.188 0,0 4.215,40.391 42.66,30.602 0,0 -14.984,-13.215 -23.465,-16.106 0,0 19.774,4.915 26.336,12.692" /><path
           id="path646"
           style="fill:#8cc640;fill-opacity:1;fill-rule:nonzero;stroke:none"
           d="m 231.59,713.714 c 0,0 35.492,-5.511 35.492,-52.422 0,0 -48.426,2.278 -39.363,48.766 0,0 16.758,-16.957 20.781,-26.875 0,0 -7.203,23.246 -16.91,30.531" /><path
           id="path648"
           style="fill:#8cc640;fill-opacity:1;fill-rule:nonzero;stroke:none"
           d="m 209.969,481.703 c 0,0 -1.973,19.312 22.558,25.73 0,0 5.43,-25.637 -20.117,-27.258 0,0 6.574,11.09 11.207,14.547 0,0 -11.164,-6.941 -13.648,-13.019" /><path
           id="path650"
           style="fill:#25479d;fill-opacity:1;fill-rule:nonzero;stroke:none"
           d="m 197.477,454.765 8.828,17.152 c 1.109,2.153 2.054,3.578 2.84,4.274 0.781,0.695 1.824,1.043 3.125,1.043 1.222,0 2.253,-0.348 3.093,-1.043 0.84,-0.696 1.262,-1.598 1.262,-2.711 0,-0.871 -0.516,-2.277 -1.547,-4.223 l -8.945,-17.515 c -0.766,-1.493 -1.145,-2.571 -1.145,-3.231 0,-1.113 0.59,-1.668 1.778,-1.668 1.64,0 4.718,1.617 9.23,4.848 1.797,1.32 3.152,2.215 4.07,2.683 0.918,0.469 1.7,0.707 2.352,0.707 1.031,0 1.91,-0.332 2.637,-0.992 0.726,-0.66 1.09,-1.476 1.09,-2.449 0,-1.703 -1.778,-3.859 -5.333,-6.465 -6.5,-4.726 -12.234,-7.09 -17.203,-7.09 -2.714,0 -4.894,0.731 -6.535,2.192 -1.644,1.457 -2.465,3.336 -2.465,5.629 0,1.113 0.25,2.414 0.746,3.91 0.497,1.492 1.204,3.144 2.122,4.949" /></g></g></g></svg>