<?xml version="1.0" encoding="UTF-8" standalone="no"?>
<svg
   xmlns:dc="http://purl.org/dc/elements/1.1/"
   xmlns:cc="http://creativecommons.org/ns#"
   xmlns:rdf="http://www.w3.org/1999/02/22-rdf-syntax-ns#"
   xmlns:svg="http://www.w3.org/2000/svg"
   xmlns="http://www.w3.org/2000/svg"
   viewBox="0 0 458.22946 407.05786"
   height="407.05786"
   width="458.22946"
   xml:space="preserve"
   id="svg2"
   version="1.1"><metadata
     id="metadata8"><rdf:RDF><cc:Work
         rdf:about=""><dc:format>image/svg+xml</dc:format><dc:type
           rdf:resource="http://purl.org/dc/dcmitype/StillImage" /></cc:Work></rdf:RDF></metadata><defs
     id="defs6"><clipPath
       id="clipPath14"
       clipPathUnits="userSpaceOnUse"><path
         id="path12"
         d="M 0,0 H 595.28 V 841.89 H 0 Z" /></clipPath><clipPath
       id="clipPath24"
       clipPathUnits="userSpaceOnUse"><path
         id="path22"
         d="M 0,0 H 595.28 V 841.89 H 0 Z" /></clipPath><clipPath
       id="clipPath30"
       clipPathUnits="userSpaceOnUse"><path
         id="path28"
         d="M 120,427 H 455 V 726 H 120 Z" /></clipPath><clipPath
       id="clipPath34"
       clipPathUnits="userSpaceOnUse"><path
         id="path32"
         d="M 0,841.89 H 595.28 V 0 H 0 Z" /></clipPath><clipPath
       id="clipPath38"
       clipPathUnits="userSpaceOnUse"><path
         id="path36"
         d="M 120,427 H 455 V 726 H 120 Z" /></clipPath><clipPath
       id="clipPath42"
       clipPathUnits="userSpaceOnUse"><path
         id="path40"
         d="m 318.632,685.48 h -0.007 c 0.006,-10e-4 0.007,-10e-4 0.007,-0.005 v 0 c -0.001,-0.003 -0.007,-0.003 -0.007,-0.007 v 0 h 0.007 c 0,-0.002 -0.001,-0.003 -0.001,-0.005 v 0 c 0.001,0 0.006,0.002 0.008,0.002 v 0 -0.004 0.004 c 0.005,-0.002 0.01,-0.004 0.013,-0.009 v 0 c -0.003,0.005 -0.003,0.009 -0.003,0.012 v 0 h 0.005 c -0.002,0 -0.002,0.001 -0.002,0.004 v 0 c 0.002,0.003 0.007,0.004 0.009,0.007 v 0 c -0.007,0 -0.009,10e-4 -0.012,0 v 0 c 0,0.004 0.003,0.004 0.003,0.004 v 0 h -0.008 c -0.005,0 0,0.005 -0.005,0.005 v 0 -0.005 c 0,0.005 -0.007,0.005 -0.008,0.011 v 0 c 0.001,-0.006 0.001,-0.011 0.001,-0.014" /></clipPath><clipPath
       id="clipPath46"
       clipPathUnits="userSpaceOnUse"><path
         id="path44"
         d="M 120,427 H 455 V 726 H 120 Z" /></clipPath><clipPath
       id="clipPath50"
       clipPathUnits="userSpaceOnUse"><path
         id="path48"
         d="m 318.617,685.45 h 0.052 v 0.048 h -0.052 z" /></clipPath><clipPath
       id="clipPath54"
       clipPathUnits="userSpaceOnUse"><path
         id="path52"
         d="m 318,685 h 1 v 1 h -1 z" /></clipPath><clipPath
       id="clipPath58"
       clipPathUnits="userSpaceOnUse"><path
         id="path56"
         d="m 318.661,685.498 0.008,-0.041 -0.044,-0.007 -0.008,0.044 z" /></clipPath><clipPath
       id="clipPath62"
       clipPathUnits="userSpaceOnUse"><path
         id="path60"
         d="m 318.617,685.45 h 0.052 v 0.048 h -0.052 z" /></clipPath><radialGradient
       id="radialGradient68"
       spreadMethod="pad"
       gradientTransform="matrix(6.572128,-44.06505,44.06505,6.572128,320.5625,680.0771)"
       gradientUnits="userSpaceOnUse"
       r="1"
       cy="0"
       cx="0"
       fy="0"
       fx="0"><stop
         id="stop64"
         offset="0"
         style="stop-opacity:1;stop-color:#919396" /><stop
         id="stop66"
         offset="1"
         style="stop-opacity:1;stop-color:#ffffff" /></radialGradient><mask
       id="mask70"
       height="1"
       width="1"
       y="0"
       x="0"
       maskUnits="userSpaceOnUse"><g
         id="g100"><g
           id="g98"
           clip-path="url(#clipPath50)"><g
             id="g72" /><g
             id="g76"><path
               id="path74"
               style="fill:#000000;fill-opacity:1;fill-rule:nonzero;stroke:none"
               d="m 318.617,685.498 h 0.052 v -0.047 h -0.052 z" /></g><g
             id="g96"><g
               id="g78" /><g
               id="g94"><g
                 id="g92"
                 clip-path="url(#clipPath54)"><g
                   id="g80" /><g
                   id="g90"><g
                     id="g88"
                     clip-path="url(#clipPath58)"><g
                       id="g86"
                       clip-path="url(#clipPath62)"><g
                         id="g84"><path
                           id="path82"
                           style="fill:url(#radialGradient68);stroke:none"
                           d="m 318.617,685.45 h 0.052 v 0.048 h -0.052 z" /></g></g></g></g></g></g></g></g></g></mask><clipPath
       id="clipPath104"
       clipPathUnits="userSpaceOnUse"><path
         id="path102"
         d="m 318,685 h 1 v 1 h -1 z" /></clipPath><clipPath
       id="clipPath108"
       clipPathUnits="userSpaceOnUse"><path
         id="path106"
         d="m 318.661,685.498 0.008,-0.041 -0.044,-0.007 -0.008,0.044 z" /></clipPath><radialGradient
       id="radialGradient118"
       spreadMethod="pad"
       gradientTransform="matrix(6.572128,-44.06505,44.06505,6.572128,320.5625,680.0771)"
       gradientUnits="userSpaceOnUse"
       r="1"
       cy="0"
       cx="0"
       fy="0"
       fx="0"><stop
         id="stop114"
         offset="0"
         style="stop-opacity:1;stop-color:#f0cd2c" /><stop
         id="stop116"
         offset="1"
         style="stop-opacity:1;stop-color:#f0cd2c" /></radialGradient><clipPath
       id="clipPath122"
       clipPathUnits="userSpaceOnUse"><path
         id="path120"
         d="M 0,841.89 H 595.28 V 0 H 0 Z" /></clipPath><clipPath
       id="clipPath126"
       clipPathUnits="userSpaceOnUse"><path
         id="path124"
         d="M 120,427 H 455 V 726 H 120 Z" /></clipPath><clipPath
       id="clipPath130"
       clipPathUnits="userSpaceOnUse"><path
         id="path128"
         d="m 277.728,663.777 c 0.032,-0.008 4.739,-1.061 13.87,0.177 v 0 c -4.368,-4.633 -5.274,-14.039 -5.274,-14.039 v 0 c 7.969,-0.177 28.11,9.935 30.993,30.57 v 0 l -5.488,-3.136 c 0.036,-0.097 0.079,-0.192 0.103,-0.293 v 0 c 0.275,-1.205 -0.471,-2.41 -1.678,-2.688 v 0 c -1.202,-0.282 -2.405,0.47 -2.688,1.677 v 0 c -0.279,1.202 0.475,2.406 1.678,2.684 v 0 c 0.869,0.202 1.729,-0.135 2.251,-0.788 v 0 l 5.334,3.045 c -3.925,1.188 -7.61,1.706 -11.026,1.706 v 0 c -16.395,10e-4 -26.63,-11.937 -28.075,-18.915" /></clipPath><clipPath
       id="clipPath134"
       clipPathUnits="userSpaceOnUse"><path
         id="path132"
         d="M 120,427 H 455 V 726 H 120 Z" /></clipPath><clipPath
       id="clipPath138"
       clipPathUnits="userSpaceOnUse"><path
         id="path136"
         d="m 272.921,643.964 h 49.205 v 44.506 h -49.205 z" /></clipPath><clipPath
       id="clipPath142"
       clipPathUnits="userSpaceOnUse"><path
         id="path140"
         d="m 272,643 h 51 v 46 h -51 z" /></clipPath><clipPath
       id="clipPath146"
       clipPathUnits="userSpaceOnUse"><path
         id="path144"
         d="m 316.456,688.47 5.67,-38.013 -43.536,-6.493 -5.668,38.014 z" /></clipPath><radialGradient
       id="radialGradient156"
       spreadMethod="pad"
       gradientTransform="matrix(6.706619,-44.9669,44.9669,6.706619,321.0625,680.1396)"
       gradientUnits="userSpaceOnUse"
       r="1"
       cy="0"
       cx="0"
       fy="0"
       fx="0"><stop
         id="stop152"
         offset="0"
         style="stop-opacity:1;stop-color:#919396" /><stop
         id="stop154"
         offset="1"
         style="stop-opacity:1;stop-color:#ffffff" /></radialGradient><mask
       id="mask158"
       height="1"
       width="1"
       y="0"
       x="0"
       maskUnits="userSpaceOnUse"><g
         id="g188"><g
           id="g186"
           clip-path="url(#clipPath138)"><g
             id="g160" /><g
             id="g164"><path
               id="path162"
               style="fill:#000000;fill-opacity:1;fill-rule:nonzero;stroke:none"
               d="m 272.921,688.47 h 49.205 v -44.506 h -49.205 z" /></g><g
             id="g184"><g
               id="g166" /><g
               id="g182"><g
                 id="g180"
                 clip-path="url(#clipPath142)"><g
                   id="g168" /><g
                   id="g178"><g
                     id="g176"
                     clip-path="url(#clipPath146)"><g
                       id="g174"><g
                         id="g172"><path
                           id="path170"
                           style="fill:url(#radialGradient156);stroke:none"
                           d="m 272.921,643.964 h 49.205 v 44.506 h -49.205 z" /></g></g></g></g></g></g></g></g></g></mask><clipPath
       id="clipPath192"
       clipPathUnits="userSpaceOnUse"><path
         id="path190"
         d="m 277,649 h 41 v 34 h -41 z" /></clipPath><clipPath
       id="clipPath196"
       clipPathUnits="userSpaceOnUse"><path
         id="path194"
         d="m 277,649 h 41 v 34 h -41 z" /></clipPath><clipPath
       id="clipPath200"
       clipPathUnits="userSpaceOnUse"><path
         id="path198"
         d="M 0,841.89 H 595.28 V 0 H 0 Z" /></clipPath><clipPath
       id="clipPath204"
       clipPathUnits="userSpaceOnUse"><path
         id="path202"
         d="M 120,427 H 455 V 726 H 120 Z" /></clipPath><clipPath
       id="clipPath208"
       clipPathUnits="userSpaceOnUse"><path
         id="path206"
         d="m 324.836,680.848 6.637,-1.327 c 0.027,0.069 0.027,0.144 0.065,0.212 v 0 c 0.509,0.956 1.696,1.318 2.653,0.809 v 0 c 0.955,-0.509 1.315,-1.696 0.809,-2.653 v 0 c -0.511,-0.957 -1.698,-1.318 -2.654,-0.809 v 0 c -0.673,0.36 -1.032,1.062 -1.018,1.776 v 0 l -6.699,1.342 c 14.203,-19.82 32.883,-20.007 40.043,-15.182 v 0 c -0.018,0.027 -2.65,4.066 -10.045,9.563 v 0 c 6.358,0.267 13.58,6.359 13.58,6.359 v 0 c -3.246,3.318 -11.881,7.02 -21.781,7.02 v 0 c -7.05,0 -14.743,-1.877 -21.59,-7.11" /></clipPath><clipPath
       id="clipPath212"
       clipPathUnits="userSpaceOnUse"><path
         id="path210"
         d="M 120,427 H 455 V 726 H 120 Z" /></clipPath><clipPath
       id="clipPath216"
       clipPathUnits="userSpaceOnUse"><path
         id="path214"
         d="m 320.58,653.834 h 51.678 v 40.483 H 320.58 Z" /></clipPath><clipPath
       id="clipPath220"
       clipPathUnits="userSpaceOnUse"><path
         id="path218"
         d="m 320,653 h 53 v 42 h -53 z" /></clipPath><clipPath
       id="clipPath224"
       clipPathUnits="userSpaceOnUse"><path
         id="path222"
         d="m 367.258,694.317 5,-33.521 -46.68,-6.962 -4.998,33.521 z" /></clipPath><radialGradient
       id="radialGradient234"
       spreadMethod="pad"
       gradientTransform="matrix(6.705399,-44.95863,44.95863,6.705399,321.0312,680.1396)"
       gradientUnits="userSpaceOnUse"
       r="1"
       cy="0"
       cx="0"
       fy="0"
       fx="0"><stop
         id="stop230"
         offset="0"
         style="stop-opacity:1;stop-color:#919396" /><stop
         id="stop232"
         offset="1"
         style="stop-opacity:1;stop-color:#ffffff" /></radialGradient><mask
       id="mask236"
       height="1"
       width="1"
       y="0"
       x="0"
       maskUnits="userSpaceOnUse"><g
         id="g266"><g
           id="g264"
           clip-path="url(#clipPath216)"><g
             id="g238" /><g
             id="g242"><path
               id="path240"
               style="fill:#000000;fill-opacity:1;fill-rule:nonzero;stroke:none"
               d="m 320.58,694.317 h 51.678 V 653.834 H 320.58 Z" /></g><g
             id="g262"><g
               id="g244" /><g
               id="g260"><g
                 id="g258"
                 clip-path="url(#clipPath220)"><g
                   id="g246" /><g
                   id="g256"><g
                     id="g254"
                     clip-path="url(#clipPath224)"><g
                       id="g252"><g
                         id="g250"><path
                           id="path248"
                           style="fill:url(#radialGradient234);stroke:none"
                           d="m 320.58,653.834 h 51.678 v 40.483 H 320.58 Z" /></g></g></g></g></g></g></g></g></g></mask><clipPath
       id="clipPath270"
       clipPathUnits="userSpaceOnUse"><path
         id="path268"
         d="m 324,660 h 45 v 28 h -45 z" /></clipPath><clipPath
       id="clipPath274"
       clipPathUnits="userSpaceOnUse"><path
         id="path272"
         d="m 324,660 h 45 v 28 h -45 z" /></clipPath><clipPath
       id="clipPath278"
       clipPathUnits="userSpaceOnUse"><path
         id="path276"
         d="M 0,841.89 H 595.28 V 0 H 0 Z" /></clipPath><clipPath
       id="clipPath282"
       clipPathUnits="userSpaceOnUse"><path
         id="path280"
         d="M 120,427 H 455 V 726 H 120 Z" /></clipPath><clipPath
       id="clipPath286"
       clipPathUnits="userSpaceOnUse"><path
         id="path284"
         d="m 323.071,671.034 c 0.029,-10e-4 0.061,-10e-4 0.091,-10e-4 v 0 c 0.053,10e-4 0.104,10e-4 0.159,-0.006 v 0 c 1.118,-0.134 1.916,-1.146 1.781,-2.265 v 0 c -0.134,-1.118 -1.15,-1.914 -2.262,-1.78 v 0 c -1.121,0.133 -1.914,1.149 -1.782,2.269 v 0 c 0.088,0.787 0.635,1.415 1.344,1.669 v 0 l -1.149,6.594 c -16.795,-14.85 -6.468,-39.13 0.493,-43.493 v 0 c 0.845,1.393 2.95,5.307 4.805,12.271 v 0 c 2.882,-4.42 8.622,-7.936 10.129,-8.341 v 0 c 4.452,7.271 2.388,28.126 -14.762,39.718 v 0 z" /></clipPath><clipPath
       id="clipPath290"
       clipPathUnits="userSpaceOnUse"><path
         id="path288"
         d="M 120,427 H 455 V 726 H 120 Z" /></clipPath><clipPath
       id="clipPath294"
       clipPathUnits="userSpaceOnUse"><path
         id="path292"
         d="m 298.089,628.67 h 49.413 v 54.352 h -49.413 z" /></clipPath><clipPath
       id="clipPath298"
       clipPathUnits="userSpaceOnUse"><path
         id="path296"
         d="m 298,628 h 50 v 56 h -50 z" /></clipPath><clipPath
       id="clipPath302"
       clipPathUnits="userSpaceOnUse"><path
         id="path300"
         d="m 340.336,683.022 7.166,-48.05 -42.247,-6.302 -7.165,48.05 z" /></clipPath><radialGradient
       id="radialGradient312"
       spreadMethod="pad"
       gradientTransform="matrix(6.705994,-44.96245,44.96245,6.705994,321.0625,680.1709)"
       gradientUnits="userSpaceOnUse"
       r="1"
       cy="0"
       cx="0"
       fy="0"
       fx="0"><stop
         id="stop308"
         offset="0"
         style="stop-opacity:1;stop-color:#919396" /><stop
         id="stop310"
         offset="1"
         style="stop-opacity:1;stop-color:#ffffff" /></radialGradient><mask
       id="mask314"
       height="1"
       width="1"
       y="0"
       x="0"
       maskUnits="userSpaceOnUse"><g
         id="g344"><g
           id="g342"
           clip-path="url(#clipPath294)"><g
             id="g316" /><g
             id="g320"><path
               id="path318"
               style="fill:#000000;fill-opacity:1;fill-rule:nonzero;stroke:none"
               d="m 298.089,683.022 h 49.413 V 628.67 h -49.413 z" /></g><g
             id="g340"><g
               id="g322" /><g
               id="g338"><g
                 id="g336"
                 clip-path="url(#clipPath298)"><g
                   id="g324" /><g
                   id="g334"><g
                     id="g332"
                     clip-path="url(#clipPath302)"><g
                       id="g330"><g
                         id="g328"><path
                           id="path326"
                           style="fill:url(#radialGradient312);stroke:none"
                           d="m 298.089,628.67 h 49.413 v 54.352 h -49.413 z" /></g></g></g></g></g></g></g></g></g></mask><clipPath
       id="clipPath348"
       clipPathUnits="userSpaceOnUse"><path
         id="path346"
         d="m 304,634 h 38 v 44 h -38 z" /></clipPath><clipPath
       id="clipPath352"
       clipPathUnits="userSpaceOnUse"><path
         id="path350"
         d="m 304,634 h 38 v 44 h -38 z" /></clipPath><clipPath
       id="clipPath356"
       clipPathUnits="userSpaceOnUse"><path
         id="path354"
         d="M 0,841.89 H 595.28 V 0 H 0 Z" /></clipPath><clipPath
       id="clipPath360"
       clipPathUnits="userSpaceOnUse"><path
         id="path358"
         d="M 120,427 H 455 V 726 H 120 Z" /></clipPath><clipPath
       id="clipPath364"
       clipPathUnits="userSpaceOnUse"><path
         id="path362"
         d="m 297.92,710.154 c -4.705,2.404 -13.525,1.026 -15.032,0.632 v 0 c -0.262,-8.495 15.933,-30.372 34.474,-25.715 v 0 l -4.703,4.171 c -0.063,-0.052 -0.12,-0.105 -0.194,-0.149 v 0 c -0.938,-0.584 -2.172,-0.29 -2.754,0.649 v 0 c -0.582,0.941 -0.291,2.174 0.65,2.759 v 0 c 0.938,0.584 2.171,0.29 2.758,-0.652 v 0 c 0.414,-0.666 0.379,-1.475 -0.01,-2.103 v 0 l 4.827,-4.281 c 7.432,21.334 -13.695,37.386 -21.942,37.725 v 0 c -0.039,-1.631 0.079,-6.074 1.926,-13.036" /></clipPath><clipPath
       id="clipPath368"
       clipPathUnits="userSpaceOnUse"><path
         id="path366"
         d="M 120,427 H 455 V 726 H 120 Z" /></clipPath><clipPath
       id="clipPath372"
       clipPathUnits="userSpaceOnUse"><path
         id="path370"
         d="m 276.386,674.178 h 55.222 v 55.248 h -55.222 z" /></clipPath><clipPath
       id="clipPath376"
       clipPathUnits="userSpaceOnUse"><path
         id="path374"
         d="m 276,674 h 56 v 56 h -56 z" /></clipPath><clipPath
       id="clipPath380"
       clipPathUnits="userSpaceOnUse"><path
         id="path378"
         d="m 324.436,729.426 7.172,-48.083 -48.051,-7.165 -7.171,48.079 z" /></clipPath><radialGradient
       id="radialGradient390"
       spreadMethod="pad"
       gradientTransform="matrix(6.713287,-45.01137,45.01137,6.713287,321.0625,680.124)"
       gradientUnits="userSpaceOnUse"
       r="1"
       cy="0"
       cx="0"
       fy="0"
       fx="0"><stop
         id="stop386"
         offset="0"
         style="stop-opacity:1;stop-color:#919396" /><stop
         id="stop388"
         offset="1"
         style="stop-opacity:1;stop-color:#ffffff" /></radialGradient><mask
       id="mask392"
       height="1"
       width="1"
       y="0"
       x="0"
       maskUnits="userSpaceOnUse"><g
         id="g422"><g
           id="g420"
           clip-path="url(#clipPath372)"><g
             id="g394" /><g
             id="g398"><path
               id="path396"
               style="fill:#000000;fill-opacity:1;fill-rule:nonzero;stroke:none"
               d="m 276.386,729.426 h 55.223 v -55.248 h -55.223 z" /></g><g
             id="g418"><g
               id="g400" /><g
               id="g416"><g
                 id="g414"
                 clip-path="url(#clipPath376)"><g
                   id="g402" /><g
                   id="g412"><g
                     id="g410"
                     clip-path="url(#clipPath380)"><g
                       id="g408"><g
                         id="g406"><path
                           id="path404"
                           style="fill:url(#radialGradient390);stroke:none"
                           d="m 276.386,674.178 h 55.222 v 55.248 h -55.222 z" /></g></g></g></g></g></g></g></g></g></mask><clipPath
       id="clipPath426"
       clipPathUnits="userSpaceOnUse"><path
         id="path424"
         d="m 282,680 h 44 v 44 h -44 z" /></clipPath><clipPath
       id="clipPath430"
       clipPathUnits="userSpaceOnUse"><path
         id="path428"
         d="m 282,680 h 44 v 44 h -44 z" /></clipPath><clipPath
       id="clipPath434"
       clipPathUnits="userSpaceOnUse"><path
         id="path432"
         d="M 0,841.89 H 595.28 V 0 H 0 Z" /></clipPath><clipPath
       id="clipPath438"
       clipPathUnits="userSpaceOnUse"><path
         id="path436"
         d="M 120,427 H 455 V 726 H 120 Z" /></clipPath><clipPath
       id="clipPath442"
       clipPathUnits="userSpaceOnUse"><path
         id="path440"
         d="m 322.136,685.009 2.977,5.324 c -0.537,0.441 -0.827,1.15 -0.664,1.873 v 0 c 0.231,1.031 1.252,1.682 2.283,1.455 v 0 c 1.035,-0.233 1.686,-1.256 1.456,-2.286 v 0 c -0.231,-1.032 -1.251,-1.684 -2.285,-1.455 v 0 c -0.069,0.018 -0.126,0.063 -0.194,0.087 v 0 l -3.145,-5.622 c 22.604,1.379 29.227,27.124 26.34,34.861 v 0 c -1.518,-0.597 -5.564,-2.428 -11.269,-6.822 v 0 c 0.391,5.264 -2.028,11.544 -2.975,12.778 v 0 c -7.912,-3.047 -18.866,-20.686 -12.524,-40.193" /></clipPath><clipPath
       id="clipPath446"
       clipPathUnits="userSpaceOnUse"><path
         id="path444"
         d="M 120,427 H 455 V 726 H 120 Z" /></clipPath><clipPath
       id="clipPath450"
       clipPathUnits="userSpaceOnUse"><path
         id="path448"
         d="m 309.838,679.135 h 47.906 v 51.319 h -47.906 z" /></clipPath><clipPath
       id="clipPath454"
       clipPathUnits="userSpaceOnUse"><path
         id="path452"
         d="m 309,679 h 49 v 52 h -49 z" /></clipPath><clipPath
       id="clipPath458"
       clipPathUnits="userSpaceOnUse"><path
         id="path456"
         d="m 351.008,730.454 6.736,-45.18 -41.168,-6.139 -6.738,45.178 z" /></clipPath><radialGradient
       id="radialGradient468"
       spreadMethod="pad"
       gradientTransform="matrix(6.717728,-45.04167,45.04167,6.717728,321.0312,680.124)"
       gradientUnits="userSpaceOnUse"
       r="1"
       cy="0"
       cx="0"
       fy="0"
       fx="0"><stop
         id="stop464"
         offset="0"
         style="stop-opacity:1;stop-color:#919396" /><stop
         id="stop466"
         offset="1"
         style="stop-opacity:1;stop-color:#ffffff" /></radialGradient><mask
       id="mask470"
       height="1"
       width="1"
       y="0"
       x="0"
       maskUnits="userSpaceOnUse"><g
         id="g500"><g
           id="g498"
           clip-path="url(#clipPath450)"><g
             id="g472" /><g
             id="g476"><path
               id="path474"
               style="fill:#000000;fill-opacity:1;fill-rule:nonzero;stroke:none"
               d="m 309.838,730.454 h 47.906 v -51.319 h -47.906 z" /></g><g
             id="g496"><g
               id="g478" /><g
               id="g494"><g
                 id="g492"
                 clip-path="url(#clipPath454)"><g
                   id="g480" /><g
                   id="g490"><g
                     id="g488"
                     clip-path="url(#clipPath458)"><g
                       id="g486"><g
                         id="g484"><path
                           id="path482"
                           style="fill:url(#radialGradient468);stroke:none"
                           d="m 309.838,679.135 h 47.906 v 51.319 h -47.906 z" /></g></g></g></g></g></g></g></g></g></mask><clipPath
       id="clipPath504"
       clipPathUnits="userSpaceOnUse"><path
         id="path502"
         d="m 315,684 h 37 v 42 h -37 z" /></clipPath><clipPath
       id="clipPath508"
       clipPathUnits="userSpaceOnUse"><path
         id="path506"
         d="m 315,684 h 37 v 42 h -37 z" /></clipPath><clipPath
       id="clipPath512"
       clipPathUnits="userSpaceOnUse"><path
         id="path510"
         d="M 0,841.89 H 595.28 V 0 H 0 Z" /></clipPath><clipPath
       id="clipPath516"
       clipPathUnits="userSpaceOnUse"><path
         id="path514"
         d="M 120,427 H 455 V 726 H 120 Z" /></clipPath></defs><g
     clip-path="url(#clipPath14)"
     transform="matrix(1.3333333,0,0,-1.3333333,-153.84173,971.80267)"
     id="g10"><g
       id="g16" /><g
       id="g18"><g
         clip-path="url(#clipPath24)"
         id="g20"><g
           id="g26" /><g
           id="g770"><g
             id="g768"
             clip-path="url(#clipPath30)"><g
               id="g518" /><g
               id="g564"><g
                 id="g562"
                 clip-path="url(#clipPath34)"><g
                   id="g560"
                   clip-path="url(#clipPath38)"><path
                     id="path520"
                     style="fill:#f386a8;fill-opacity:1;fill-rule:nonzero;stroke:none"
                     d="m 259.3975,643.1655 c 0,0 -4.839,6.575 -8.948,12.381 -8.904,-7.033 -16.805,-14.975 -20.297,-32.641 -0.531,-2.701 -0.52,-5.528 -0.195,-8.383 -1.405,1.87 -2.964,3.724 -4.806,5.531 -17.372,17.067 -38.903,7.658 -38.903,7.658 l 4.017,-13.18 c 0,0 -7.693,-2.739 -14.432,-4.998 4.16,-10.547 9.486,-20.403 25.398,-28.841 1.874,-0.993 3.831,-1.73 5.818,-2.28 -1.915,-0.722 -3.833,-1.588 -5.728,-2.715 -20.925,-12.444 -22.354,-32.742 -22.354,-32.742 l 13.7,-1.503 c 0,0 -0.515,-8.14 -1.083,-15.232 11.331,-0.322 22.489,0.695 36.506,12.003 1.876,1.514 3.441,3.336 4.773,5.333 0.105,-2.089 0.363,-4.216 0.899,-6.362 5.881,-23.627 24.906,-30.847 24.906,-30.847 l 5.39,12.689 c 0,0 7.65,-2.837 14.273,-5.43 3.578,10.757 5.82,21.733 -0.966,38.423 -1.184,2.904 -2.966,5.516 -5.065,7.876 1.397,-0.366 2.839,-0.686 4.363,-0.907 24.092,-3.497 40.061,12.975 40.061,12.975 l -10.965,9.091 c 0,0 6.435,7.122 11.342,12.269 -8.603,7.392 -19.635,11.601 -37.644,11.645 -3.13,0.003 -6.135,-0.793 -8.99,-2.053 1.709,2.568 3.199,5.36 4.28,8.427 8.046,22.978 -3.887,39.455 -3.887,39.455 z m -17.244,-59.169 c 0.772,0.281 1.559,0.349 2.322,0.269 l 4.489,16.374 c -1.646,0.796 -2.806,2.434 -2.855,4.377 -0.058,2.759 2.121,5.052 4.889,5.12 2.759,0.065 5.049,-2.121 5.113,-4.883 0.07,-2.762 -2.117,-5.055 -4.872,-5.123 -0.196,0 -0.38,0.036 -0.568,0.047 l -4.486,-16.382 c 1.162,-0.562 2.121,-1.553 2.606,-2.86 0.075,-0.199 0.112,-0.399 0.157,-0.601 l 16.139,2.937 c 0.004,0.198 -0.011,0.394 0.006,0.598 0.318,2.812 2.851,4.838 5.661,4.525 2.813,-0.316 4.84,-2.848 4.528,-5.661 -0.318,-2.816 -2.848,-4.836 -5.662,-4.526 -1.991,0.229 -3.571,1.565 -4.216,3.323 l -16.345,-2.973 c -0.216,-1.846 -1.408,-3.509 -3.255,-4.225 l 5.098,-15.699 c 0.221,0.03 0.436,0.078 0.657,0.08 2.942,0.068 5.374,-2.256 5.447,-5.196 0.067,-2.937 -2.265,-5.38 -5.204,-5.445 -2.941,-0.069 -5.37,2.26 -5.447,5.199 -0.045,2.088 1.129,3.904 2.863,4.818 l -5.167,15.912 c -1.405,-0.029 -2.758,0.51 -3.75,1.495 l -13.011,-9.788 c 0.125,-0.233 0.262,-0.464 0.36,-0.728 1.117,-3.028 -0.434,-6.391 -3.465,-7.509 -3.036,-1.118 -6.396,0.432 -7.517,3.464 -1.115,3.026 0.434,6.391 3.465,7.512 2.189,0.804 4.537,0.207 6.102,-1.313 l 13.058,9.82 c -0.065,0.133 -0.143,0.257 -0.201,0.405 -0.352,0.964 -0.392,1.964 -0.183,2.901 l -13.432,9.116 c -0.152,-0.151 -0.288,-0.311 -0.453,-0.447 -2.243,-1.827 -5.537,-1.481 -7.363,0.761 -1.826,2.236 -1.486,5.537 0.755,7.361 2.238,1.825 5.543,1.485 7.371,-0.757 1.289,-1.588 1.475,-3.706 0.684,-5.457 l 13.134,-8.914 c 0.588,0.916 1.447,1.665 2.548,2.073" /><g
                     id="g524"
                     transform="translate(259.3975,643.1655)"><path
                       id="path522"
                       style="fill:none;stroke:#ffffff;stroke-width:1.5;stroke-linecap:butt;stroke-linejoin:miter;stroke-miterlimit:4;stroke-dasharray:none;stroke-opacity:0"
                       d="m 0,0 c 0,0 -4.839,6.575 -8.948,12.381 -8.904,-7.033 -16.805,-14.975 -20.297,-32.641 -0.531,-2.701 -0.52,-5.528 -0.195,-8.383 -1.405,1.87 -2.964,3.724 -4.806,5.531 -17.372,17.067 -38.903,7.658 -38.903,7.658 l 4.017,-13.18 c 0,0 -7.693,-2.739 -14.432,-4.998 4.16,-10.547 9.486,-20.403 25.398,-28.841 1.874,-0.993 3.831,-1.73 5.818,-2.28 -1.915,-0.722 -3.833,-1.588 -5.728,-2.715 -20.925,-12.444 -22.354,-32.742 -22.354,-32.742 l 13.7,-1.503 c 0,0 -0.515,-8.14 -1.083,-15.232 11.331,-0.322 22.489,0.695 36.506,12.003 1.876,1.514 3.441,3.336 4.773,5.333 0.105,-2.089 0.363,-4.216 0.899,-6.362 5.881,-23.627 24.906,-30.847 24.906,-30.847 l 5.39,12.689 c 0,0 7.65,-2.837 14.273,-5.43 3.578,10.757 5.82,21.733 -0.966,38.423 -1.184,2.904 -2.966,5.516 -5.065,7.876 1.397,-0.366 2.839,-0.686 4.363,-0.907 24.092,-3.497 40.061,12.975 40.061,12.975 l -10.965,9.091 c 0,0 6.435,7.122 11.342,12.269 -8.603,7.392 -19.635,11.601 -37.644,11.645 -3.13,0.003 -6.135,-0.793 -8.99,-2.053 1.709,2.568 3.199,5.36 4.28,8.427 8.046,22.978 -3.887,39.455 -3.887,39.455 z m -17.244,-59.169 c 0.772,0.281 1.559,0.349 2.322,0.269 l 4.489,16.374 c -1.646,0.796 -2.806,2.434 -2.855,4.377 -0.058,2.759 2.121,5.052 4.889,5.12 2.759,0.065 5.049,-2.121 5.113,-4.883 0.07,-2.762 -2.117,-5.055 -4.872,-5.123 -0.196,0 -0.38,0.036 -0.568,0.047 l -4.486,-16.382 c 1.162,-0.562 2.121,-1.553 2.606,-2.86 0.075,-0.199 0.112,-0.399 0.157,-0.601 l 16.139,2.937 c 0.004,0.198 -0.011,0.394 0.006,0.598 0.318,2.812 2.851,4.838 5.661,4.525 2.813,-0.316 4.84,-2.848 4.528,-5.661 -0.318,-2.816 -2.848,-4.836 -5.662,-4.526 -1.991,0.229 -3.571,1.565 -4.216,3.323 l -16.345,-2.973 c -0.216,-1.846 -1.408,-3.509 -3.255,-4.225 l 5.098,-15.699 c 0.221,0.03 0.436,0.078 0.657,0.08 2.942,0.068 5.374,-2.256 5.447,-5.196 0.067,-2.937 -2.265,-5.38 -5.204,-5.445 -2.941,-0.069 -5.37,2.26 -5.447,5.199 -0.045,2.088 1.129,3.904 2.863,4.818 l -5.167,15.912 c -1.405,-0.029 -2.758,0.51 -3.75,1.495 l -13.011,-9.788 c 0.125,-0.233 0.262,-0.464 0.36,-0.728 1.117,-3.028 -0.434,-6.391 -3.465,-7.509 -3.036,-1.118 -6.396,0.432 -7.517,3.464 -1.115,3.026 0.434,6.391 3.465,7.512 2.189,0.804 4.537,0.207 6.102,-1.313 l 13.058,9.82 c -0.065,0.133 -0.143,0.257 -0.201,0.405 -0.352,0.964 -0.392,1.964 -0.183,2.901 l -13.432,9.116 c -0.152,-0.151 -0.288,-0.311 -0.453,-0.447 -2.243,-1.827 -5.537,-1.481 -7.363,0.761 -1.826,2.236 -1.486,5.537 0.755,7.361 2.238,1.825 5.543,1.485 7.371,-0.757 1.289,-1.588 1.475,-3.706 0.684,-5.457 l 13.134,-8.914 c 0.588,0.916 1.447,1.665 2.548,2.073" /></g><path
                     id="path526"
                     style="fill:#f386a8;fill-opacity:1;fill-rule:nonzero;stroke:none"
                     d="m 243.2715,614.4575 -3.786,-20.822 -9.085,3.029" /><path
                     id="path528"
                     style="fill:#f386a8;fill-opacity:0;fill-rule:nonzero;stroke:none"
                     d="m 242.1367,609.5356 -1.137,-18.929 -8.329,5.3 c 0,0 -1.515,8.898 -8.895,8.898 -7.383,0 -22.149,-6.626 -14.387,-14.387 l 20.633,-12.304 -8.707,-4.164 c 0,0 -19.309,-9.844 -9.087,-17.415 0,0 10.6,-9.466 18.551,-1.514 l 8.329,12.493 4.922,-8.329 c 0,0 -4.922,-18.551 11.735,-14.386 0,0 9.087,7.193 4.164,14.007 l -4.541,14.386 6.436,0.758 c 0,0 17.415,-4.543 18.169,9.463 0,0 -4.162,14.009 -17.792,8.33 l -4.921,6.058 c 0,0 8.329,7.95 1.136,13.25 0,0 -13.252,8.328 -16.279,-1.515" /><path
                     id="path530"
                     style="fill:#ffffff;fill-opacity:0;fill-rule:nonzero;stroke:none"
                     d="m 241.2861,585.5234 c 0.743,0.289 1.505,0.368 2.248,0.304 l 4.063,15.947 c -1.61,0.737 -2.764,2.306 -2.843,4.189 -0.105,2.674 1.97,4.932 4.647,5.047 2.671,0.113 4.93,-1.968 5.041,-4.642 0.113,-2.677 -1.964,-4.935 -4.631,-5.048 -0.192,-0.006 -0.37,0.023 -0.554,0.036 l -4.062,-15.954 c 1.138,-0.527 2.085,-1.468 2.578,-2.726 0.074,-0.192 0.112,-0.386 0.16,-0.579 l 15.591,3.127 c -0.002,0.19 -0.021,0.382 -0.004,0.58 0.256,2.73 2.674,4.737 5.405,4.48 2.73,-0.255 4.741,-2.675 4.484,-5.404 -0.259,-2.733 -2.675,-4.739 -5.408,-4.486 -1.928,0.186 -3.486,1.455 -4.144,3.146 l -15.787,-3.165 c -0.179,-1.791 -1.303,-3.425 -3.076,-4.149 l 5.214,-15.124 c 0.208,0.033 0.418,0.084 0.632,0.088 2.851,0.117 5.246,-2.095 5.366,-4.943 0.118,-2.846 -2.098,-5.25 -4.943,-5.364 -2.85,-0.119 -5.245,2.096 -5.368,4.944 -0.082,2.023 1.024,3.804 2.69,4.718 l -5.287,15.329 c -1.36,-0.053 -2.68,0.446 -3.659,1.383 l -12.438,-9.708 c 0.127,-0.225 0.261,-0.448 0.358,-0.701 1.138,-2.917 -0.302,-6.203 -3.221,-7.339 -2.922,-1.138 -6.208,0.305 -7.346,3.222 -1.134,2.917 0.309,6.206 3.228,7.343 2.11,0.82 4.392,0.281 5.933,-1.165 l 12.488,9.742 c -0.07,0.131 -0.149,0.249 -0.203,0.39 -0.363,0.929 -0.416,1.894 -0.232,2.807 l -13.175,8.598 c -0.141,-0.145 -0.272,-0.304 -0.43,-0.437 -2.143,-1.811 -5.34,-1.534 -7.147,0.608 -1.81,2.133 -1.538,5.339 0.604,7.147 2.137,1.806 5.342,1.534 7.154,-0.608 1.277,-1.513 1.496,-3.562 0.76,-5.271 l 12.881,-8.414 c 0.554,0.898 1.376,1.639 2.433,2.052" /><path
                     id="path532"
                     style="fill:#f386a8;fill-opacity:1;fill-rule:nonzero;stroke:none"
                     d="m 380.373,644.5586 c 0,0 -5.685,7.726 -10.514,14.547 -10.458,-8.264 -19.743,-17.594 -23.844,-38.351 -0.624,-3.172 -0.613,-6.494 -0.232,-9.847 -1.649,2.195 -3.482,4.374 -5.646,6.497 -20.41,20.051 -45.705,8.998 -45.705,8.998 l 4.717,-15.485 c 0,0 -9.04,-3.218 -16.954,-5.873 4.886,-12.392 11.143,-23.97 29.838,-33.885 2.201,-1.167 4.5,-2.033 6.838,-2.679 -2.25,-0.848 -4.504,-1.866 -6.731,-3.191 -24.585,-14.619 -26.265,-38.467 -26.265,-38.467 l 16.097,-1.766 c 0,0 -0.605,-9.563 -1.272,-17.896 13.311,-0.379 26.421,0.816 42.893,14.102 2.203,1.779 4.04,3.919 5.605,6.265 0.124,-2.454 0.426,-4.952 1.057,-7.475 6.911,-27.758 29.263,-36.241 29.263,-36.241 l 6.332,14.908 c 0,0 8.988,-3.332 16.768,-6.38 4.204,12.638 6.84,25.534 -1.134,45.144 -1.39,3.412 -3.485,6.48 -5.951,9.254 1.643,-0.431 3.335,-0.806 5.125,-1.068 28.309,-4.107 47.07,15.246 47.07,15.246 l -12.884,10.682 c 0,0 7.559,8.368 13.327,14.415 -10.109,8.683 -23.071,13.629 -44.229,13.68 -3.677,0.004 -7.208,-0.931 -10.564,-2.411 2.011,3.016 3.76,6.297 5.029,9.9 9.454,26.998 -4.567,46.356 -4.567,46.356 z m -20.261,-69.518 c 0.908,0.331 1.833,0.411 2.73,0.317 l 5.274,19.238 c -1.932,0.934 -3.298,2.859 -3.354,5.143 -0.068,3.242 2.491,5.935 5.745,6.015 3.24,0.076 5.93,-2.492 6.007,-5.737 0.081,-3.246 -2.488,-5.939 -5.725,-6.019 -0.231,0 -0.447,0.041 -0.668,0.056 l -5.269,-19.248 c 1.364,-0.661 2.493,-1.825 3.062,-3.361 0.087,-0.233 0.128,-0.469 0.182,-0.705 l 18.964,3.45 c 0.003,0.233 -0.015,0.462 0.008,0.702 0.372,3.305 3.346,5.686 6.652,5.317 3.3,-0.372 5.683,-3.346 5.315,-6.651 -0.37,-3.308 -3.344,-5.682 -6.652,-5.317 -2.337,0.267 -4.193,1.838 -4.951,3.903 l -19.205,-3.493 c -0.254,-2.168 -1.655,-4.121 -3.823,-4.962 l 5.99,-18.445 c 0.257,0.034 0.511,0.09 0.77,0.093 3.457,0.08 6.314,-2.652 6.4,-6.105 0.079,-3.451 -2.661,-6.321 -6.112,-6.398 -3.457,-0.08 -6.311,2.655 -6.4,6.109 -0.055,2.453 1.325,4.587 3.363,5.661 l -6.072,18.696 c -1.652,-0.035 -3.24,0.597 -4.404,1.755 l -15.29,-11.499 c 0.15,-0.275 0.308,-0.546 0.424,-0.855 1.314,-3.559 -0.509,-7.51 -4.07,-8.823 -3.567,-1.314 -7.515,0.507 -8.831,4.069 -1.313,3.555 0.511,7.51 4.07,8.826 2.572,0.946 5.331,0.244 7.17,-1.543 l 15.343,11.537 c -0.078,0.157 -0.171,0.303 -0.236,0.477 -0.416,1.132 -0.461,2.307 -0.219,3.409 l -15.78,10.71 c -0.177,-0.178 -0.337,-0.365 -0.532,-0.525 -2.635,-2.148 -6.506,-1.741 -8.651,0.893 -2.144,2.627 -1.746,6.505 0.889,8.649 2.628,2.145 6.51,1.745 8.659,-0.889 1.514,-1.866 1.732,-4.354 0.803,-6.411 l 15.433,-10.475 c 0.689,1.078 1.7,1.957 2.991,2.436" /><g
                     id="g536"
                     transform="translate(380.373,644.5586)"><path
                       id="path534"
                       style="fill:none;stroke:none;stroke-width:1.5;stroke-linecap:butt;stroke-linejoin:miter;stroke-miterlimit:4;stroke-dasharray:none;stroke-opacity:1"
                       d="m 0,0 c 0,0 -5.685,7.726 -10.514,14.547 -10.458,-8.264 -19.743,-17.594 -23.844,-38.351 -0.624,-3.172 -0.613,-6.494 -0.232,-9.847 -1.649,2.195 -3.482,4.374 -5.646,6.497 -20.41,20.051 -45.705,8.998 -45.705,8.998 l 4.717,-15.485 c 0,0 -9.04,-3.218 -16.954,-5.873 4.886,-12.392 11.143,-23.97 29.838,-33.885 2.201,-1.167 4.5,-2.033 6.838,-2.679 -2.25,-0.848 -4.504,-1.866 -6.731,-3.191 -24.585,-14.619 -26.265,-38.467 -26.265,-38.467 l 16.097,-1.766 c 0,0 -0.605,-9.563 -1.272,-17.896 13.311,-0.379 26.421,0.816 42.893,14.102 2.203,1.779 4.04,3.919 5.605,6.265 0.124,-2.454 0.426,-4.952 1.057,-7.475 6.911,-27.758 29.263,-36.241 29.263,-36.241 l 6.332,14.908 c 0,0 8.988,-3.332 16.768,-6.38 4.204,12.638 6.84,25.534 -1.134,45.144 -1.39,3.412 -3.485,6.48 -5.951,9.254 1.643,-0.431 3.335,-0.806 5.125,-1.068 28.309,-4.107 47.07,15.246 47.07,15.246 l -12.884,10.682 c 0,0 7.559,8.368 13.327,14.415 -10.109,8.683 -23.071,13.629 -44.229,13.68 -3.677,0.004 -7.208,-0.931 -10.564,-2.411 2.011,3.016 3.76,6.297 5.029,9.9 9.454,26.998 -4.567,46.356 -4.567,46.356 z m -20.261,-69.518 c 0.908,0.331 1.833,0.411 2.73,0.317 l 5.274,19.238 c -1.932,0.934 -3.298,2.859 -3.354,5.143 -0.068,3.242 2.491,5.935 5.745,6.015 3.24,0.076 5.93,-2.492 6.007,-5.737 0.081,-3.246 -2.488,-5.939 -5.725,-6.019 -0.231,0 -0.447,0.041 -0.668,0.056 l -5.269,-19.248 c 1.364,-0.661 2.493,-1.825 3.062,-3.361 0.087,-0.233 0.128,-0.469 0.182,-0.705 l 18.964,3.45 c 0.003,0.233 -0.015,0.462 0.008,0.702 0.372,3.305 3.346,5.686 6.652,5.317 3.3,-0.372 5.683,-3.346 5.315,-6.651 -0.37,-3.308 -3.344,-5.682 -6.652,-5.317 -2.337,0.267 -4.193,1.838 -4.951,3.903 l -19.205,-3.493 c -0.254,-2.168 -1.655,-4.121 -3.823,-4.962 l 5.99,-18.445 c 0.257,0.034 0.511,0.09 0.77,0.093 3.457,0.08 6.314,-2.652 6.4,-6.105 0.079,-3.451 -2.661,-6.321 -6.112,-6.398 -3.457,-0.08 -6.311,2.655 -6.4,6.109 -0.055,2.453 1.325,4.587 3.363,5.661 l -6.072,18.696 c -1.652,-0.035 -3.24,0.597 -4.404,1.755 l -15.29,-11.499 c 0.15,-0.275 0.308,-0.546 0.424,-0.855 1.314,-3.559 -0.509,-7.51 -4.07,-8.823 -3.567,-1.314 -7.515,0.507 -8.831,4.069 -1.313,3.555 0.511,7.51 4.07,8.826 2.572,0.946 5.331,0.244 7.17,-1.543 l 15.343,11.537 c -0.078,0.157 -0.171,0.303 -0.236,0.477 -0.416,1.132 -0.461,2.307 -0.219,3.409 l -15.78,10.71 c -0.177,-0.178 -0.337,-0.365 -0.532,-0.525 -2.635,-2.148 -6.506,-1.741 -8.651,0.893 -2.144,2.627 -1.746,6.505 0.889,8.649 2.628,2.145 6.51,1.745 8.659,-0.889 1.514,-1.866 1.732,-4.354 0.803,-6.411 l 15.433,-10.475 c 0.689,1.078 1.7,1.957 2.991,2.436" /></g><path
                     id="path538"
                     style="fill:#f386a8;fill-opacity:1;fill-rule:nonzero;stroke:none"
                     d="m 361.4268,610.8306 -4.447,-24.464 -10.675,3.558" /><path
                     id="path540"
                     style="fill:none;fill-opacity:1;fill-rule:nonzero;stroke:none"
                     d="m 360.0928,605.0479 -1.334,-22.24 -9.786,6.227 c 0,0 -1.779,10.453 -10.452,10.453 -8.675,0 -26.022,-7.784 -16.904,-16.902 l 24.243,-14.456 -10.231,-4.894 c 0,0 -22.684,-11.564 -10.675,-20.46 0,0 12.454,-11.12 21.795,-1.78 l 9.785,14.679 5.784,-9.785 c 0,0 -5.784,-21.796 13.788,-16.903 0,0 10.675,8.451 4.892,16.457 l -5.338,16.903 7.563,0.889 c 0,0 20.462,-5.337 21.35,11.121 0,0 -4.892,16.458 -20.905,9.786 l -5.783,7.116 c 0,0 9.786,9.341 1.334,15.568 0,0 -15.567,9.786 -19.126,-1.779" /><path
                     id="path542"
                     style="fill:none;fill-opacity:1;fill-rule:nonzero;stroke:none"
                     d="m 359.0938,576.8364 c 0.875,0.339 1.768,0.431 2.641,0.356 l 4.773,18.736 c -1.891,0.866 -3.245,2.709 -3.339,4.922 -0.124,3.141 2.315,5.793 5.461,5.93 3.138,0.132 5.79,-2.313 5.923,-5.454 0.132,-3.145 -2.309,-5.799 -5.442,-5.931 -0.226,-0.007 -0.435,0.028 -0.651,0.041 l -4.771,-18.743 c 1.335,-0.62 2.447,-1.725 3.027,-3.203 0.087,-0.224 0.132,-0.453 0.189,-0.68 l 18.316,3.673 c -0.002,0.224 -0.023,0.449 -0.004,0.682 0.301,3.208 3.142,5.566 6.349,5.264 3.21,-0.301 5.571,-3.143 5.271,-6.349 -0.305,-3.212 -3.144,-5.568 -6.355,-5.271 -2.265,0.218 -4.093,1.71 -4.868,3.695 l -18.547,-3.717 c -0.211,-2.106 -1.533,-4.023 -3.617,-4.875 l 6.126,-17.77 c 0.246,0.041 0.492,0.1 0.745,0.105 3.349,0.137 6.162,-2.462 6.303,-5.808 0.139,-3.344 -2.466,-6.169 -5.808,-6.303 -3.348,-0.14 -6.161,2.462 -6.306,5.808 -0.098,2.377 1.203,4.47 3.16,5.543 l -6.211,18.011 c -1.598,-0.062 -3.15,0.525 -4.299,1.625 l -14.612,-11.407 c 0.148,-0.264 0.306,-0.524 0.42,-0.823 1.337,-3.427 -0.358,-7.287 -3.785,-8.621 -3.436,-1.339 -7.294,0.357 -8.631,3.786 -1.333,3.426 0.361,7.29 3.792,8.626 2.477,0.963 5.159,0.33 6.972,-1.369 l 14.67,11.447 c -0.08,0.152 -0.173,0.291 -0.238,0.456 -0.425,1.093 -0.487,2.227 -0.271,3.298 l -15.48,10.104 c -0.167,-0.171 -0.319,-0.359 -0.504,-0.514 -2.519,-2.129 -6.275,-1.802 -8.398,0.713 -2.126,2.507 -1.808,6.274 0.708,8.398 2.513,2.122 6.277,1.803 8.406,-0.714 1.502,-1.778 1.757,-4.186 0.894,-6.193 l 15.133,-9.886 c 0.651,1.055 1.616,1.926 2.858,2.412" /><path
                     id="path544"
                     style="fill:#25479d;fill-opacity:1;fill-rule:nonzero;stroke:none"
                     d="m 184.9482,475.8252 9.117,17.775 c 1.261,2.467 1.892,4.135 1.892,5.004 0,1.459 -1.052,2.189 -3.154,2.189 -2.103,0 -4.874,-0.625 -8.314,-1.876 -3.44,-1.251 -6.843,-2.867 -10.206,-4.848 -2.485,-1.459 -5.045,-3.206 -7.683,-5.239 -2.638,-2.032 -4.98,-4.127 -7.024,-6.281 -2.045,-2.155 -3.89,-4.396 -5.533,-6.724 z m -4.415,-8.548 h -31.708 l -0.172,-0.313 c -1.605,-3.094 -3.02,-6.368 -4.243,-9.826 -1.224,-3.458 -2.246,-6.906 -3.067,-10.347 -0.823,-3.44 -1.329,-6.533 -1.52,-9.278 l -0.172,-3.127 c -0.115,-2.259 -0.573,-3.892 -1.376,-4.9 -0.803,-1.008 -2.027,-1.512 -3.67,-1.512 -3.517,0 -5.275,2.207 -5.275,6.62 0,4.587 0.764,9.817 2.294,15.69 1.528,5.872 3.535,11.432 6.02,16.68 l 0.172,0.313 h -9.69 c -1.491,0 -2.6,0.043 -3.325,0.13 -0.727,0.086 -1.415,0.287 -2.064,0.599 -1.301,0.695 -1.95,1.755 -1.95,3.18 0,1.876 0.936,3.214 2.809,4.014 0.956,0.417 2.829,0.625 5.62,0.625 h 13.245 l 0.114,0.261 c 7.34,11.536 17.124,20.467 29.357,26.792 2.599,1.355 5.237,2.519 7.913,3.492 2.675,0.973 5.236,1.695 7.683,2.164 2.446,0.469 4.721,0.704 6.823,0.704 2.37,0 4.482,-0.383 6.336,-1.147 1.854,-0.765 3.287,-1.834 4.301,-3.206 1.012,-1.373 1.519,-2.997 1.519,-4.873 0,-2.364 -1.319,-6.117 -3.956,-11.26 l -23.05,-44.932 c -1.185,-2.259 -2.208,-3.779 -3.068,-4.561 -0.86,-0.782 -1.978,-1.173 -3.354,-1.173 -1.339,0 -2.457,0.391 -3.354,1.173 -0.899,0.782 -1.348,1.747 -1.348,2.893 0,0.939 0.535,2.45 1.606,4.535 z" /><path
                     id="path546"
                     style="fill:#25479d;fill-opacity:1;fill-rule:nonzero;stroke:none"
                     d="m 222.9907,484.5825 c 0,-1.703 -0.545,-3.137 -1.634,-4.3 -1.09,-1.165 -2.533,-1.747 -4.329,-1.747 -1.491,0 -2.705,0.443 -3.641,1.33 -0.938,0.885 -1.405,2.024 -1.405,3.414 0,1.737 0.564,3.144 1.692,4.222 1.127,1.077 2.551,1.616 4.271,1.616 1.452,0 2.656,-0.417 3.612,-1.251 0.955,-0.834 1.434,-1.929 1.434,-3.284 m -25.516,-29.816 8.83,17.149 c 1.109,2.155 2.055,3.579 2.839,4.275 0.783,0.694 1.825,1.042 3.125,1.042 1.222,0 2.255,-0.348 3.096,-1.042 0.84,-0.696 1.261,-1.599 1.261,-2.711 0,-0.869 -0.516,-2.276 -1.548,-4.222 l -8.944,-17.514 c -0.766,-1.494 -1.147,-2.572 -1.147,-3.232 0,-1.113 0.592,-1.668 1.777,-1.668 1.644,0 4.721,1.616 9.232,4.848 1.796,1.32 3.153,2.215 4.071,2.684 0.917,0.469 1.7,0.704 2.35,0.704 1.032,0 1.911,-0.33 2.638,-0.99 0.726,-0.661 1.089,-1.478 1.089,-2.45 0,-1.703 -1.777,-3.858 -5.332,-6.464 -6.499,-4.726 -12.233,-7.089 -17.201,-7.089 -2.715,0 -4.894,0.73 -6.537,2.189 -1.644,1.46 -2.465,3.336 -2.465,5.63 0,1.112 0.249,2.415 0.745,3.909 0.496,1.494 1.204,3.145 2.121,4.952" /><path
                     id="path548"
                     style="fill:#25479d;fill-opacity:1;fill-rule:nonzero;stroke:none"
                     d="m 235.3457,476.5029 c 0.382,0.034 0.783,0.052 1.204,0.052 3.172,0 5.724,-0.721 7.655,-2.163 1.93,-1.442 2.895,-3.328 2.895,-5.656 0,-1.876 -0.64,-3.7 -1.921,-5.473 -1.281,-1.772 -3.564,-4.049 -6.851,-6.828 l -4.53,-3.806 c -2.37,-1.946 -3.555,-3.475 -3.555,-4.586 0,-0.661 0.267,-1.182 0.803,-1.564 0.535,-0.383 1.241,-0.574 2.121,-0.574 1.797,0 4.377,0.643 7.741,1.929 3.363,1.285 6.689,2.867 9.977,4.744 1.872,1.042 3.096,1.685 3.669,1.928 0.574,0.243 1.185,0.365 1.835,0.365 1.07,0 1.958,-0.339 2.666,-1.016 0.707,-0.678 1.061,-1.521 1.061,-2.528 0,-1.113 -0.536,-2.19 -1.605,-3.232 -1.071,-1.043 -2.906,-2.277 -5.505,-3.701 -4.128,-2.224 -7.941,-3.831 -11.439,-4.822 -3.497,-0.99 -6.948,-1.486 -10.349,-1.486 -3.823,0 -6.833,0.783 -9.031,2.346 -2.198,1.564 -3.297,3.683 -3.297,6.36 0,2.432 1.166,4.864 3.498,7.297 1.834,1.807 4.605,4.222 8.314,7.246 2.637,2.119 4.214,3.457 4.73,4.013 0.516,0.556 0.774,1.164 0.774,1.824 0,0.8 -0.344,1.356 -1.032,1.668 -0.688,0.313 -1.854,0.487 -3.497,0.522 -0.803,-1.668 -1.625,-2.85 -2.466,-3.545 -0.841,-0.695 -1.873,-1.042 -3.096,-1.042 -1.262,0 -2.304,0.356 -3.125,1.068 -0.823,0.712 -1.233,1.624 -1.233,2.737 0,0.799 0.496,2.189 1.491,4.17 l 3.326,6.411 c 1.146,2.19 2.101,3.623 2.866,4.301 0.764,0.677 1.797,1.016 3.096,1.016 1.224,0 2.256,-0.348 3.097,-1.042 0.84,-0.696 1.261,-1.599 1.261,-2.711 0,-0.8 -0.459,-2.085 -1.376,-3.857 z" /><path
                     id="path550"
                     style="fill:#25479d;fill-opacity:1;fill-rule:nonzero;stroke:none"
                     d="m 272.2417,468.6841 -7.97,-15.429 c -1.224,-2.433 -1.835,-4.084 -1.835,-4.952 0,-0.938 0.535,-1.407 1.606,-1.407 1.108,0 2.617,0.469 4.53,1.407 2.369,1.112 4.796,2.38 7.281,3.805 l 2.982,1.772 c 1.299,0.764 2.503,1.147 3.612,1.147 0.65,0 1.29,-0.165 1.921,-0.495 0.631,-0.33 1.127,-0.782 1.491,-1.355 0.363,-0.574 0.545,-1.156 0.545,-1.746 0,-1.182 -0.631,-2.338 -1.892,-3.467 -1.262,-1.129 -3.498,-2.528 -6.709,-4.196 -7.225,-3.788 -12.844,-5.682 -16.857,-5.682 -2.791,0 -5.009,0.652 -6.652,1.955 -1.644,1.303 -2.465,3.084 -2.465,5.343 0,2.258 0.974,5.299 2.924,9.122 l 7.282,14.178 h -0.516 c -2.447,0 -4.091,0.226 -4.931,0.678 -1.224,0.659 -1.835,1.65 -1.835,2.971 0,0.695 0.229,1.39 0.688,2.085 0.459,0.695 1.09,1.216 1.892,1.564 0.879,0.347 2.599,0.521 5.16,0.521 h 3.556 l 3.554,6.88 c 1.109,2.155 2.055,3.579 2.839,4.275 0.783,0.694 1.825,1.042 3.125,1.042 1.222,0 2.255,-0.348 3.096,-1.042 0.84,-0.696 1.261,-1.582 1.261,-2.659 0,-0.904 -0.516,-2.328 -1.548,-4.274 l -2.121,-4.222 h 3.669 c 2.523,0 4.281,-0.27 5.275,-0.808 0.994,-0.539 1.492,-1.451 1.492,-2.737 0,-1.738 -0.861,-2.971 -2.581,-3.701 -0.841,-0.382 -2.561,-0.573 -5.161,-0.573 z" /><path
                     id="path552"
                     style="fill:#25479d;fill-opacity:1;fill-rule:nonzero;stroke:none"
                     d="m 292.9678,451.1699 c 0,-1.425 0.373,-2.546 1.118,-3.362 0.746,-0.817 1.749,-1.225 3.01,-1.225 2.6,0 5.237,2.415 7.913,7.246 2.103,3.822 3.153,7.331 3.153,10.529 0,1.529 -0.324,2.692 -0.974,3.492 -0.651,0.799 -1.606,1.199 -2.867,1.199 -1.53,0 -3.01,-0.677 -4.444,-2.033 -1.433,-1.355 -2.838,-3.423 -4.215,-6.202 -1.797,-3.754 -2.694,-6.968 -2.694,-9.644 m -10.148,0.104 c 0,3.232 0.602,6.394 1.806,9.487 1.204,3.093 2.896,5.908 5.073,8.445 2.18,2.536 4.635,4.508 7.369,5.916 2.733,1.407 5.513,2.111 8.342,2.111 2.638,0 4.903,-0.513 6.795,-1.538 1.892,-1.025 3.344,-2.502 4.358,-4.431 1.011,-1.928 1.519,-4.248 1.519,-6.958 0,-4.414 -1.06,-8.653 -3.182,-12.719 -2.121,-4.065 -4.931,-7.333 -8.429,-9.799 -3.498,-2.468 -7.119,-3.701 -10.865,-3.701 -3.862,0 -6.957,1.199 -9.289,3.596 -2.332,2.398 -3.497,5.595 -3.497,9.591" /><path
                     id="path554"
                     style="fill:#25479d;fill-opacity:1;fill-rule:nonzero;stroke:none"
                     d="m 343.3389,442.7778 -0.803,-0.417 c -2.982,-1.599 -5.447,-2.71 -7.397,-3.336 -1.949,-0.625 -3.899,-0.938 -5.848,-0.938 -2.677,0 -4.836,0.712 -6.479,2.137 -1.644,1.425 -2.466,3.284 -2.466,5.577 0,2.015 1.09,5.143 3.268,9.383 l 8.543,16.732 c 1.071,2.085 2.017,3.492 2.839,4.222 0.822,0.73 1.882,1.095 3.182,1.095 1.3,0 2.351,-0.348 3.154,-1.042 0.803,-0.696 1.204,-1.582 1.204,-2.659 0,-0.8 -0.516,-2.224 -1.549,-4.275 l -7.626,-14.907 -0.515,-0.938 c -1.3,-2.468 -1.949,-4.136 -1.949,-5.005 0,-1.042 0.573,-1.563 1.719,-1.563 1.185,0 2.647,0.469 4.387,1.407 1.738,0.939 3.984,2.45 6.737,4.535 l 9.805,19.13 c 1.069,2.085 2.016,3.492 2.838,4.222 0.821,0.73 1.882,1.095 3.183,1.095 1.298,0 2.35,-0.348 3.153,-1.042 0.803,-0.696 1.204,-1.582 1.204,-2.659 0,-0.8 -0.517,-2.224 -1.548,-4.275 l -8.429,-16.471 -0.746,-1.355 c -0.802,-1.599 -1.204,-2.641 -1.204,-3.128 0,-0.417 0.201,-0.791 0.603,-1.12 0.401,-0.331 0.811,-0.495 1.232,-0.495 1.911,0 5.581,2.085 11.009,6.255 1.835,1.459 3.345,2.189 4.53,2.189 1.109,0 2.044,-0.322 2.81,-0.964 0.763,-0.644 1.146,-1.434 1.146,-2.372 0,-1.668 -1.892,-3.893 -5.676,-6.672 -2.752,-2.085 -5.744,-3.78 -8.973,-5.082 -3.232,-1.304 -5.992,-1.955 -8.286,-1.955 -1.72,0 -3.145,0.374 -4.272,1.121 -1.128,0.746 -2.054,1.936 -2.78,3.57" /><path
                     id="path556"
                     style="fill:#25479d;fill-opacity:1;fill-rule:nonzero;stroke:none"
                     d="m 390.4404,467.2246 c -2.6,-1.286 -5.065,-2.945 -7.396,-4.978 -2.333,-2.033 -4.244,-4.153 -5.735,-6.359 -1.49,-2.207 -2.235,-4.058 -2.235,-5.552 0,-2.571 1.738,-3.857 5.217,-3.857 1.987,0 4.548,0.469 7.683,1.408 3.097,0.868 6.078,1.928 8.945,3.179 l 5.504,2.45 c 1.95,0.868 3.498,1.303 4.645,1.303 1.069,0 1.939,-0.339 2.608,-1.016 0.669,-0.678 1.004,-1.504 1.004,-2.476 0,-1.391 -0.822,-2.72 -2.466,-3.988 -1.643,-1.269 -4.529,-2.788 -8.658,-4.561 -3.784,-1.563 -7.32,-2.736 -10.607,-3.518 -3.288,-0.782 -6.384,-1.173 -9.288,-1.173 -3.021,0 -5.629,0.435 -7.827,1.303 -2.199,0.868 -3.862,2.154 -4.989,3.857 -1.128,1.703 -1.691,3.735 -1.691,6.099 0,2.19 0.554,4.483 1.663,6.88 1.108,2.398 2.732,4.796 4.873,7.194 2.141,2.398 4.587,4.569 7.34,6.515 3.018,2.19 6.201,3.953 9.547,5.291 3.343,1.338 6.201,2.007 8.571,2.007 1.491,0 2.686,-0.357 3.584,-1.069 0.897,-0.712 1.348,-1.641 1.348,-2.788 0,-0.696 -0.23,-1.668 -0.689,-2.919 -0.65,-1.564 -1.013,-2.398 -1.089,-2.502 l -1.892,-3.753 -1.204,-2.346 c -1.11,-2.12 -2.543,-3.179 -4.3,-3.179 -1.225,0 -2.228,0.329 -3.011,0.99 -0.784,0.66 -1.176,1.476 -1.176,2.45 0,1.147 0.575,2.849 1.721,5.108" /><path
                     id="path558"
                     style="fill:#25479d;fill-opacity:1;fill-rule:nonzero;stroke:none"
                     d="m 424.9844,473.8965 c 3.173,2.224 6.384,3.336 9.633,3.336 2.37,0 4.281,-0.625 5.734,-1.876 1.452,-1.252 2.179,-2.902 2.179,-4.952 0,-2.537 -1.07,-5.752 -3.211,-9.643 l -2.58,-4.639 -2.351,-4.275 c -0.88,-1.598 -1.319,-2.728 -1.319,-3.388 0,-1.182 0.592,-1.772 1.777,-1.772 0.574,0 1.204,0.138 1.893,0.417 0.687,0.277 1.566,0.747 2.638,1.407 1.069,0.66 2.598,1.72 4.586,3.18 2.026,1.424 3.43,2.336 4.214,2.736 0.784,0.4 1.596,0.6 2.438,0.6 0.993,0 1.853,-0.331 2.58,-0.99 0.726,-0.661 1.089,-1.443 1.089,-2.346 0,-1.495 -1.166,-3.18 -3.497,-5.056 -2.103,-1.668 -4.321,-3.154 -6.652,-4.457 -2.332,-1.303 -4.578,-2.311 -6.737,-3.023 -2.16,-0.712 -4.062,-1.069 -5.705,-1.069 -2.676,0 -4.855,0.738 -6.536,2.215 -1.683,1.477 -2.524,3.397 -2.524,5.761 0,1.285 0.402,2.936 1.205,4.951 0.688,1.807 2.484,5.265 5.389,10.373 1.721,3.093 2.58,4.969 2.58,5.63 0,0.972 -0.553,1.459 -1.662,1.459 -1.147,0 -2.772,-0.565 -4.874,-1.694 -2.102,-1.13 -4.109,-2.459 -6.02,-3.988 l -9.919,-19.39 c -0.766,-1.529 -1.406,-2.632 -1.921,-3.31 -0.517,-0.677 -1.138,-1.191 -1.865,-1.538 -0.573,-0.208 -1.204,-0.365 -1.891,-0.469 h -0.344 c -1.184,0 -2.198,0.365 -3.039,1.095 -0.841,0.73 -1.262,1.633 -1.262,2.71 0,0.799 0.516,2.19 1.548,4.171 l 24.025,46.86 c 1.147,2.189 2.102,3.622 2.867,4.3 0.764,0.678 1.797,1.017 3.097,1.017 1.26,0 2.301,-0.348 3.125,-1.043 0.821,-0.696 1.232,-1.598 1.232,-2.71 0,-0.834 -0.516,-2.242 -1.548,-4.222 z" /></g></g></g><g
               id="g592"><g
                 id="g590"
                 clip-path="url(#clipPath42)"><g
                   id="g588"
                   clip-path="url(#clipPath46)"><g
                     id="g566" /><g
                     id="g586"
                     mask="url(#mask70)"><g
                       id="g568" /><g
                       id="g584"><g
                         id="g582"
                         clip-path="url(#clipPath104)"><g
                           id="g570" /><g
                           id="g580"><g
                             id="g578"
                             clip-path="url(#clipPath108)"><g
                               id="g576"><g
                                 id="g574"><path
                                   id="path572"
                                   style="fill:url(#radialGradient118);stroke:none"
                                   d="m 318.617,685.45 h 0.052 v 0.048 h -0.052 z" /></g></g></g></g></g></g></g></g></g></g><g
               id="g600"><g
                 id="g598"
                 clip-path="url(#clipPath122)"><g
                   id="g596"
                   clip-path="url(#clipPath126)"><path
                     id="path594"
                     style="fill:#f386a8;fill-opacity:1;fill-rule:nonzero;stroke:none"
                     d="m 277.7285,663.7769 c 0.031,-0.008 4.738,-1.061 13.87,0.178 -4.368,-4.634 -5.274,-14.04 -5.274,-14.04 7.968,-0.177 28.109,9.935 30.992,30.57 l -5.487,-3.136 c 0.036,-0.097 0.078,-0.191 0.102,-0.292 0.276,-1.206 -0.471,-2.411 -1.678,-2.689 -1.202,-0.282 -2.405,0.471 -2.687,1.677 -0.279,1.203 0.475,2.407 1.677,2.684 0.87,0.203 1.73,-0.135 2.252,-0.787 l 5.334,3.044 c -3.925,1.188 -7.61,1.706 -11.027,1.706 -16.395,0.002 -26.63,-11.937 -28.074,-18.915" /></g></g></g><g
               id="g624"><g
                 id="g622"
                 clip-path="url(#clipPath130)"><g
                   id="g620"
                   clip-path="url(#clipPath134)"><g
                     id="g602" /><g
                     id="g618"
                     mask="url(#mask158)"><g
                       id="g604" /><g
                       id="g616"><g
                         id="g614"
                         clip-path="url(#clipPath192)"><g
                           id="g606" /><g
                           id="g612"><g
                             id="g610"
                             clip-path="url(#clipPath196)"><path
                               id="path608"
                               style="fill:#f386a8;fill-opacity:1;fill-rule:nonzero;stroke:none"
                               d="m 316.4561,688.4702 5.67,-38.013 -43.536,-6.493 -5.668,38.014 z" /></g></g></g></g></g></g></g></g><g
               id="g632"><g
                 id="g630"
                 clip-path="url(#clipPath200)"><g
                   id="g628"
                   clip-path="url(#clipPath204)"><path
                     id="path626"
                     style="fill:#f386a8;fill-opacity:1;fill-rule:nonzero;stroke:none"
                     d="m 324.8359,680.8486 6.637,-1.328 c 0.027,0.07 0.027,0.144 0.064,0.212 0.51,0.956 1.697,1.318 2.653,0.809 0.957,-0.509 1.316,-1.696 0.81,-2.652 -0.512,-0.957 -1.697,-1.318 -2.654,-0.81 -0.672,0.36 -1.031,1.062 -1.018,1.776 l -6.699,1.343 c 14.203,-19.821 32.883,-20.007 40.043,-15.183 -0.018,0.027 -2.649,4.067 -10.045,9.563 6.357,0.268 13.58,6.36 13.58,6.36 -3.246,3.317 -11.881,7.019 -21.781,7.019 -7.049,0 -14.742,-1.877 -21.59,-7.109" /></g></g></g><g
               id="g656"><g
                 id="g654"
                 clip-path="url(#clipPath208)"><g
                   id="g652"
                   clip-path="url(#clipPath212)"><g
                     id="g634" /><g
                     id="g650"
                     mask="url(#mask236)"><g
                       id="g636" /><g
                       id="g648"><g
                         id="g646"
                         clip-path="url(#clipPath270)"><g
                           id="g638" /><g
                           id="g644"><g
                             id="g642"
                             clip-path="url(#clipPath274)"><path
                               id="path640"
                               style="fill:#f386a8;fill-opacity:1;fill-rule:nonzero;stroke:none"
                               d="m 367.2578,694.3174 5,-33.521 -46.68,-6.962 -4.998,33.521 z" /></g></g></g></g></g></g></g></g><g
               id="g664"><g
                 id="g662"
                 clip-path="url(#clipPath278)"><g
                   id="g660"
                   clip-path="url(#clipPath282)"><path
                     id="path658"
                     style="fill:#f386a8;fill-opacity:1;fill-rule:nonzero;stroke:none"
                     d="m 323.0713,671.0337 c 0.028,-10e-4 0.062,-10e-4 0.091,-10e-4 0.053,10e-4 0.103,10e-4 0.159,-0.005 1.118,-0.134 1.915,-1.147 1.78,-2.266 -0.133,-1.117 -1.149,-1.914 -2.261,-1.78 -1.122,0.133 -1.915,1.15 -1.783,2.269 0.089,0.788 0.636,1.415 1.345,1.669 l -1.149,6.594 c -16.795,-14.85 -6.468,-39.129 0.493,-43.492 0.846,1.393 2.949,5.307 4.804,12.27 2.883,-4.42 8.624,-7.936 10.129,-8.341 4.454,7.271 2.388,28.126 -14.761,39.719 z" /></g></g></g><g
               id="g688"><g
                 id="g686"
                 clip-path="url(#clipPath286)"><g
                   id="g684"
                   clip-path="url(#clipPath290)"><g
                     id="g666" /><g
                     id="g682"
                     mask="url(#mask314)"><g
                       id="g668" /><g
                       id="g680"><g
                         id="g678"
                         clip-path="url(#clipPath348)"><g
                           id="g670" /><g
                           id="g676"><g
                             id="g674"
                             clip-path="url(#clipPath352)"><path
                               id="path672"
                               style="fill:#f386a8;fill-opacity:1;fill-rule:nonzero;stroke:none"
                               d="m 340.3359,683.0225 7.166,-48.051 -42.247,-6.301 -7.165,48.049 z" /></g></g></g></g></g></g></g></g><g
               id="g696"><g
                 id="g694"
                 clip-path="url(#clipPath356)"><g
                   id="g692"
                   clip-path="url(#clipPath360)"><path
                     id="path690"
                     style="fill:#f386a8;fill-opacity:1;fill-rule:nonzero;stroke:none"
                     d="m 297.9199,710.1538 c -4.705,2.404 -13.525,1.026 -15.032,0.632 -0.262,-8.495 15.932,-30.372 34.474,-25.715 l -4.703,4.171 c -0.063,-0.051 -0.12,-0.105 -0.194,-0.149 -0.938,-0.584 -2.172,-0.29 -2.754,0.649 -0.582,0.941 -0.291,2.175 0.649,2.76 0.939,0.583 2.172,0.29 2.759,-0.653 0.414,-0.666 0.379,-1.475 -0.01,-2.102 l 4.827,-4.282 c 7.432,21.334 -13.695,37.387 -21.942,37.725 -0.039,-1.631 0.079,-6.074 1.926,-13.036" /></g></g></g><g
               id="g720"><g
                 id="g718"
                 clip-path="url(#clipPath364)"><g
                   id="g716"
                   clip-path="url(#clipPath368)"><g
                     id="g698" /><g
                     id="g714"
                     mask="url(#mask392)"><g
                       id="g700" /><g
                       id="g712"><g
                         id="g710"
                         clip-path="url(#clipPath426)"><g
                           id="g702" /><g
                           id="g708"><g
                             id="g706"
                             clip-path="url(#clipPath430)"><path
                               id="path704"
                               style="fill:#f386a8;fill-opacity:1;fill-rule:nonzero;stroke:none"
                               d="m 324.4355,729.4258 7.173,-48.08 -48.052,-7.168 -7.171,48.08 z" /></g></g></g></g></g></g></g></g><g
               id="g728"><g
                 id="g726"
                 clip-path="url(#clipPath434)"><g
                   id="g724"
                   clip-path="url(#clipPath438)"><path
                     id="path722"
                     style="fill:#f386a8;fill-opacity:1;fill-rule:nonzero;stroke:none"
                     d="m 322.1357,685.0088 2.978,5.324 c -0.538,0.442 -0.828,1.15 -0.665,1.874 0.232,1.03 1.252,1.681 2.284,1.454 1.035,-0.233 1.685,-1.256 1.455,-2.286 -0.231,-1.032 -1.251,-1.684 -2.285,-1.454 -0.069,0.017 -0.125,0.062 -0.194,0.086 l -3.144,-5.622 c 22.603,1.379 29.226,27.124 26.34,34.861 -1.519,-0.596 -5.565,-2.428 -11.27,-6.822 0.391,5.264 -2.027,11.544 -2.975,12.778 -7.912,-3.047 -18.866,-20.685 -12.524,-40.193" /></g></g></g><g
               id="g752"><g
                 id="g750"
                 clip-path="url(#clipPath442)"><g
                   id="g748"
                   clip-path="url(#clipPath446)"><g
                     id="g730" /><g
                     id="g746"
                     mask="url(#mask470)"><g
                       id="g732" /><g
                       id="g744"><g
                         id="g742"
                         clip-path="url(#clipPath504)"><g
                           id="g734" /><g
                           id="g740"><g
                             id="g738"
                             clip-path="url(#clipPath508)"><path
                               id="path736"
                               style="fill:#f386a8;fill-opacity:1;fill-rule:nonzero;stroke:none"
                               d="m 351.0078,730.4536 6.736,-45.179 -41.168,-6.14 -6.738,45.178 z" /></g></g></g></g></g></g></g></g><g
               id="g766"><g
                 id="g764"
                 clip-path="url(#clipPath512)"><g
                   id="g762"
                   clip-path="url(#clipPath516)"><path
                     id="path754"
                     style="fill:#8cc640;fill-opacity:1;fill-rule:nonzero;stroke:none"
                     d="m 420.7881,687.353 c 0,0 -6.3,-29.417 -45.531,-27.186 0,0 4.215,40.39 42.66,30.603 0,0 -14.982,-13.217 -23.465,-16.106 0,0 19.773,4.912 26.336,12.689" /><path
                     id="path756"
                     style="fill:#8cc640;fill-opacity:1;fill-rule:nonzero;stroke:none"
                     d="m 231.5889,713.7134 c 0,0 35.492,-5.509 35.494,-52.422 0,0 -48.427,2.278 -39.365,48.767 0,0 16.758,-16.959 20.784,-26.876 0,0 -7.204,23.245 -16.913,30.531" /><path
                     id="path758"
                     style="fill:none;fill-opacity:1;fill-rule:nonzero;stroke:none"
                     d="m 226.666,485.8892 c 0,-5.155 -4.178,-9.333 -9.333,-9.333 -5.154,0 -9.333,4.178 -9.333,9.333 0,5.154 4.179,9.333 9.333,9.333 5.155,0 9.333,-4.179 9.333,-9.333" /><path
                     id="path760"
                     style="fill:#8cc640;fill-opacity:1;fill-rule:nonzero;stroke:none"
                     d="m 209.9697,481.7021 c 0,0 -1.972,19.312 22.557,25.729 0,0 5.43,-25.634 -20.117,-27.256 0,0 6.574,11.088 11.209,14.546 0,0 -11.164,-6.94 -13.649,-13.019" /></g></g></g></g></g></g></g></g></svg>